<?xml version="1.0" encoding="UTF-8"?>
<svg xmlns="http://www.w3.org/2000/svg" xmlns:xlink="http://www.w3.org/1999/xlink" width="357.492023pt" height="300pt" viewBox="0 0 357.492023 300" version="1.1">
<g id="surface844">
<path style="fill:none;stroke-width:1.309947;stroke-linecap:butt;stroke-linejoin:miter;stroke:rgb(50.196078%,50.196078%,50.196078%);stroke-opacity:1;stroke-miterlimit:10;" d="M 288.652344 80.3125 C 288.652344 72.691406 282.476562 66.515625 274.855469 66.515625 C 267.234375 66.515625 261.058594 72.691406 261.058594 80.3125 C 261.058594 87.933594 267.234375 94.109375 274.855469 94.109375 C 282.476562 94.109375 288.652344 87.933594 288.652344 80.3125 Z M 288.652344 80.3125 "/>
<path style="fill:none;stroke-width:1.309947;stroke-linecap:butt;stroke-linejoin:miter;stroke:rgb(50.196078%,50.196078%,50.196078%);stroke-opacity:1;stroke-miterlimit:10;" d="M 344.78125 67.078125 C 344.78125 59.457031 338.605469 53.28125 330.984375 53.28125 C 323.363281 53.28125 317.1875 59.457031 317.1875 67.078125 C 317.1875 74.699219 323.363281 80.875 330.984375 80.875 C 338.605469 80.875 344.78125 74.699219 344.78125 67.078125 Z M 344.78125 67.078125 "/>
<path style="fill:none;stroke-width:1.309947;stroke-linecap:butt;stroke-linejoin:miter;stroke:rgb(50.196078%,50.196078%,50.196078%);stroke-opacity:1;stroke-miterlimit:10;" d="M 223.273438 148.652344 C 223.273438 141.03125 217.097656 134.855469 209.476562 134.855469 C 201.855469 134.855469 195.679688 141.03125 195.679688 148.652344 C 195.679688 156.273438 201.855469 162.449219 209.476562 162.449219 C 217.097656 162.449219 223.273438 156.273438 223.273438 148.652344 Z M 223.273438 148.652344 "/>
<path style="fill:none;stroke-width:1.309947;stroke-linecap:butt;stroke-linejoin:miter;stroke:rgb(50.196078%,50.196078%,50.196078%);stroke-opacity:1;stroke-miterlimit:10;" d="M 291.28125 148.3125 C 291.28125 140.691406 285.105469 134.515625 277.484375 134.515625 C 269.863281 134.515625 263.6875 140.691406 263.6875 148.3125 C 263.6875 155.933594 269.863281 162.109375 277.484375 162.109375 C 285.105469 162.109375 291.28125 155.933594 291.28125 148.3125 Z M 291.28125 148.3125 "/>
<path style="fill:none;stroke-width:1.309947;stroke-linecap:butt;stroke-linejoin:miter;stroke:rgb(50.196078%,50.196078%,50.196078%);stroke-opacity:1;stroke-miterlimit:10;" d="M 355.039062 138.289062 C 355.039062 130.667969 348.863281 124.492188 341.242188 124.492188 C 333.621094 124.492188 327.445312 130.667969 327.445312 138.289062 C 327.445312 145.910156 333.621094 152.085938 341.242188 152.085938 C 348.863281 152.085938 355.039062 145.910156 355.039062 138.289062 Z M 355.039062 138.289062 "/>
<path style="fill:none;stroke-width:1.309947;stroke-linecap:butt;stroke-linejoin:miter;stroke:rgb(50.196078%,50.196078%,50.196078%);stroke-opacity:1;stroke-miterlimit:10;" d="M 291.492188 217.417969 C 291.492188 209.796875 285.316406 203.621094 277.695312 203.621094 C 270.074219 203.621094 263.898438 209.796875 263.898438 217.417969 C 263.898438 225.039062 270.074219 231.214844 277.695312 231.214844 C 285.316406 231.214844 291.492188 225.039062 291.492188 217.417969 Z M 291.492188 217.417969 "/>
<path style="fill:none;stroke-width:1.309947;stroke-linecap:butt;stroke-linejoin:miter;stroke:rgb(50.196078%,50.196078%,50.196078%);stroke-opacity:1;stroke-miterlimit:10;" d="M 357.492188 208.917969 C 357.492188 201.296875 351.316406 195.121094 343.695312 195.121094 C 336.074219 195.121094 329.898438 201.296875 329.898438 208.917969 C 329.898438 216.539062 336.074219 222.714844 343.695312 222.714844 C 351.316406 222.714844 357.492188 216.539062 357.492188 208.917969 Z M 357.492188 208.917969 "/>
<path style="fill:none;stroke-width:1.309947;stroke-linecap:butt;stroke-linejoin:miter;stroke:rgb(50.196078%,50.196078%,50.196078%);stroke-opacity:1;stroke-miterlimit:10;" d="M 34.25 72.386719 C 34.25 64.765625 28.074219 58.589844 20.453125 58.589844 C 12.832031 58.589844 6.65625 64.765625 6.65625 72.386719 C 6.65625 80.007812 12.832031 86.183594 20.453125 86.183594 C 28.074219 86.183594 34.25 80.007812 34.25 72.386719 Z M 34.25 72.386719 "/>
<path style="fill:none;stroke-width:1.309947;stroke-linecap:butt;stroke-linejoin:miter;stroke:rgb(50.196078%,50.196078%,50.196078%);stroke-opacity:1;stroke-miterlimit:10;" d="M 89 79.363281 C 89 71.742188 82.824219 65.566406 75.203125 65.566406 C 67.582031 65.566406 61.40625 71.742188 61.40625 79.363281 C 61.40625 86.984375 67.582031 93.160156 75.203125 93.160156 C 82.824219 93.160156 89 86.984375 89 79.363281 Z M 89 79.363281 "/>
<path style="fill:none;stroke-width:1.309947;stroke-linecap:butt;stroke-linejoin:miter;stroke:rgb(50.196078%,50.196078%,50.196078%);stroke-opacity:1;stroke-miterlimit:10;" d="M 27.59375 145.839844 C 27.59375 138.21875 21.417969 132.042969 13.796875 132.042969 C 6.175781 132.042969 0 138.21875 0 145.839844 C 0 153.460938 6.175781 159.636719 13.796875 159.636719 C 21.417969 159.636719 27.59375 153.460938 27.59375 145.839844 Z M 27.59375 145.839844 "/>
<path style="fill:none;stroke-width:1.309947;stroke-linecap:butt;stroke-linejoin:miter;stroke:rgb(50.196078%,50.196078%,50.196078%);stroke-opacity:1;stroke-miterlimit:10;" d="M 87.832031 146.917969 C 87.832031 139.296875 81.65625 133.121094 74.035156 133.121094 C 66.414062 133.121094 60.238281 139.296875 60.238281 146.917969 C 60.238281 154.539062 66.414062 160.714844 74.035156 160.714844 C 81.65625 160.714844 87.832031 154.539062 87.832031 146.917969 Z M 87.832031 146.917969 "/>
<path style="fill:none;stroke-width:1.309947;stroke-linecap:butt;stroke-linejoin:miter;stroke:rgb(50.196078%,50.196078%,50.196078%);stroke-opacity:1;stroke-miterlimit:10;" d="M 155.378906 147.910156 C 155.378906 140.289062 149.203125 134.113281 141.582031 134.113281 C 133.960938 134.113281 127.785156 140.289062 127.785156 147.910156 C 127.785156 155.53125 133.960938 161.707031 141.582031 161.707031 C 149.203125 161.707031 155.378906 155.53125 155.378906 147.910156 Z M 155.378906 147.910156 "/>
<path style="fill:none;stroke-width:1.309947;stroke-linecap:butt;stroke-linejoin:miter;stroke:rgb(50.196078%,50.196078%,50.196078%);stroke-opacity:1;stroke-miterlimit:10;" d="M 33.585938 219.023438 C 33.585938 211.402344 27.410156 205.226562 19.789062 205.226562 C 12.167969 205.226562 5.992188 211.402344 5.992188 219.023438 C 5.992188 226.644531 12.167969 232.820312 19.789062 232.820312 C 27.410156 232.820312 33.585938 226.644531 33.585938 219.023438 Z M 33.585938 219.023438 "/>
<path style="fill:none;stroke-width:1.309947;stroke-linecap:butt;stroke-linejoin:miter;stroke:rgb(50.196078%,50.196078%,50.196078%);stroke-opacity:1;stroke-miterlimit:10;" d="M 89.070312 214.554688 C 89.070312 206.933594 82.894531 200.757812 75.273438 200.757812 C 67.652344 200.757812 61.476562 206.933594 61.476562 214.554688 C 61.476562 222.175781 67.652344 228.351562 75.273438 228.351562 C 82.894531 228.351562 89.070312 222.175781 89.070312 214.554688 Z M 89.070312 214.554688 "/>
<path style="fill:none;stroke-width:1.309947;stroke-linecap:butt;stroke-linejoin:miter;stroke:rgb(50.196078%,50.196078%,50.196078%);stroke-opacity:1;stroke-miterlimit:10;" d="M 354.703125 276.976562 C 354.703125 269.355469 348.527344 263.179688 340.90625 263.179688 C 333.285156 263.179688 327.109375 269.355469 327.109375 276.976562 C 327.109375 284.597656 333.285156 290.773438 340.90625 290.773438 C 348.527344 290.773438 354.703125 284.597656 354.703125 276.976562 Z M 354.703125 276.976562 "/>
<path style="fill:none;stroke-width:1.309947;stroke-linecap:butt;stroke-linejoin:miter;stroke:rgb(50.196078%,50.196078%,50.196078%);stroke-opacity:1;stroke-miterlimit:10;" d="M 287.789062 285.089844 C 287.789062 277.46875 281.613281 271.292969 273.992188 271.292969 C 266.371094 271.292969 260.195312 277.46875 260.195312 285.089844 C 260.195312 292.710938 266.371094 298.886719 273.992188 298.886719 C 281.613281 298.886719 287.789062 292.710938 287.789062 285.089844 Z M 287.789062 285.089844 "/>
<path style="fill:none;stroke-width:1.309947;stroke-linecap:butt;stroke-linejoin:miter;stroke:rgb(50.196078%,50.196078%,50.196078%);stroke-opacity:1;stroke-miterlimit:10;" d="M 218.007812 286.203125 C 218.007812 278.582031 211.832031 272.40625 204.210938 272.40625 C 196.589844 272.40625 190.414062 278.582031 190.414062 286.203125 C 190.414062 293.824219 196.589844 300 204.210938 300 C 211.832031 300 218.007812 293.824219 218.007812 286.203125 Z M 218.007812 286.203125 "/>
<path style="fill:none;stroke-width:1.309947;stroke-linecap:butt;stroke-linejoin:miter;stroke:rgb(50.196078%,50.196078%,50.196078%);stroke-opacity:1;stroke-miterlimit:10;" d="M 223.289062 218.878906 C 223.289062 211.257812 217.113281 205.082031 209.492188 205.082031 C 201.871094 205.082031 195.695312 211.257812 195.695312 218.878906 C 195.695312 226.5 201.871094 232.675781 209.492188 232.675781 C 217.113281 232.675781 223.289062 226.5 223.289062 218.878906 Z M 223.289062 218.878906 "/>
<path style="fill:none;stroke-width:1.309947;stroke-linecap:butt;stroke-linejoin:miter;stroke:rgb(50.196078%,50.196078%,50.196078%);stroke-opacity:1;stroke-miterlimit:10;" d="M 76.230469 271.460938 C 76.230469 263.839844 70.054688 257.664062 62.433594 257.664062 C 54.8125 257.664062 48.636719 263.839844 48.636719 271.460938 C 48.636719 279.082031 54.8125 285.257812 62.433594 285.257812 C 70.054688 285.257812 76.230469 279.082031 76.230469 271.460938 Z M 76.230469 271.460938 "/>
<path style="fill:none;stroke-width:1.309947;stroke-linecap:butt;stroke-linejoin:miter;stroke:rgb(50.196078%,50.196078%,50.196078%);stroke-opacity:1;stroke-miterlimit:10;" d="M 147.191406 283.09375 C 147.191406 275.472656 141.015625 269.296875 133.394531 269.296875 C 125.773438 269.296875 119.597656 275.472656 119.597656 283.09375 C 119.597656 290.714844 125.773438 296.890625 133.394531 296.890625 C 141.015625 296.890625 147.191406 290.714844 147.191406 283.09375 Z M 147.191406 283.09375 "/>
<path style="fill:none;stroke-width:1.309947;stroke-linecap:butt;stroke-linejoin:miter;stroke:rgb(50.196078%,50.196078%,50.196078%);stroke-opacity:1;stroke-miterlimit:10;" d="M 155.492188 217.933594 C 155.492188 210.3125 149.316406 204.136719 141.695312 204.136719 C 134.074219 204.136719 127.898438 210.3125 127.898438 217.933594 C 127.898438 225.554688 134.074219 231.730469 141.695312 231.730469 C 149.316406 231.730469 155.492188 225.554688 155.492188 217.933594 Z M 155.492188 217.933594 "/>
<path style="fill:none;stroke-width:1.309947;stroke-linecap:butt;stroke-linejoin:miter;stroke:rgb(50.196078%,50.196078%,50.196078%);stroke-opacity:1;stroke-miterlimit:10;" d="M 81.105469 22.320312 C 81.105469 14.699219 74.929688 8.523438 67.308594 8.523438 C 59.6875 8.523438 53.511719 14.699219 53.511719 22.320312 C 53.511719 29.941406 59.6875 36.117188 67.308594 36.117188 C 74.929688 36.117188 81.105469 29.941406 81.105469 22.320312 Z M 81.105469 22.320312 "/>
<path style="fill:none;stroke-width:1.309947;stroke-linecap:butt;stroke-linejoin:miter;stroke:rgb(50.196078%,50.196078%,50.196078%);stroke-opacity:1;stroke-miterlimit:10;" d="M 152.871094 13.796875 C 152.871094 6.175781 146.695312 0 139.074219 0 C 131.453125 0 125.277344 6.175781 125.277344 13.796875 C 125.277344 21.417969 131.453125 27.59375 139.074219 27.59375 C 146.695312 27.59375 152.871094 21.417969 152.871094 13.796875 Z M 152.871094 13.796875 "/>
<path style="fill:none;stroke-width:1.309947;stroke-linecap:butt;stroke-linejoin:miter;stroke:rgb(50.196078%,50.196078%,50.196078%);stroke-opacity:1;stroke-miterlimit:10;" d="M 224.613281 14.257812 C 224.613281 6.636719 218.4375 0.460938 210.816406 0.460938 C 203.195312 0.460938 197.019531 6.636719 197.019531 14.257812 C 197.019531 21.878906 203.195312 28.054688 210.816406 28.054688 C 218.4375 28.054688 224.613281 21.878906 224.613281 14.257812 Z M 224.613281 14.257812 "/>
<path style="fill:none;stroke-width:1.309947;stroke-linecap:butt;stroke-linejoin:miter;stroke:rgb(50.196078%,50.196078%,50.196078%);stroke-opacity:1;stroke-miterlimit:10;" d="M 295.878906 22.53125 C 295.878906 14.910156 289.703125 8.734375 282.082031 8.734375 C 274.460938 8.734375 268.285156 14.910156 268.285156 22.53125 C 268.285156 30.152344 274.460938 36.328125 282.082031 36.328125 C 289.703125 36.328125 295.878906 30.152344 295.878906 22.53125 Z M 295.878906 22.53125 "/>
<path style="fill:none;stroke-width:1.309947;stroke-linecap:butt;stroke-linejoin:miter;stroke:rgb(50.196078%,50.196078%,50.196078%);stroke-opacity:1;stroke-miterlimit:10;" d="M 155.242188 77.957031 C 155.242188 70.335938 149.066406 64.160156 141.445312 64.160156 C 133.824219 64.160156 127.648438 70.335938 127.648438 77.957031 C 127.648438 85.578125 133.824219 91.753906 141.445312 91.753906 C 149.066406 91.753906 155.242188 85.578125 155.242188 77.957031 Z M 155.242188 77.957031 "/>
<path style="fill:none;stroke-width:1.309947;stroke-linecap:butt;stroke-linejoin:miter;stroke:rgb(50.196078%,50.196078%,50.196078%);stroke-opacity:1;stroke-miterlimit:10;" d="M 222.242188 78.5625 C 222.242188 70.941406 216.066406 64.765625 208.445312 64.765625 C 200.824219 64.765625 194.648438 70.941406 194.648438 78.5625 C 194.648438 86.183594 200.824219 92.359375 208.445312 92.359375 C 216.066406 92.359375 222.242188 86.183594 222.242188 78.5625 Z M 222.242188 78.5625 "/>
<path style="fill:none;stroke-width:1.309947;stroke-linecap:butt;stroke-linejoin:miter;stroke:rgb(50.196078%,50.196078%,50.196078%);stroke-opacity:1;stroke-miterlimit:10;" d="M 288.285156 77.148438 C 293.175781 75.996094 298.777344 74.679688 304.128906 73.417969 "/>
<path style=" stroke:none;fill-rule:nonzero;fill:rgb(50.196078%,50.196078%,50.196078%);fill-opacity:1;" d="M 317.554688 70.25 L 300.554688 68.84375 L 304.460938 73.339844 L 302.972656 79.105469 Z M 317.554688 70.25 "/>
<path style=" stroke:none;fill-rule:nonzero;fill:rgb(50.196078%,50.196078%,50.196078%);fill-opacity:1;" d="M 304.460938 73.335938 L 304.125 73.414062 L 303.972656 72.777344 L 304.457031 73.335938 L 304.121094 73.414062 L 304.273438 74.050781 Z M 304.460938 73.335938 "/>
<path style="fill:none;stroke-width:1.309947;stroke-linecap:butt;stroke-linejoin:miter;stroke:rgb(50.196078%,50.196078%,50.196078%);stroke-opacity:1;stroke-miterlimit:10;" d="M 275.394531 94.101562 C 275.703125 102.007812 276.089844 111.894531 276.429688 120.742188 "/>
<path style=" stroke:none;fill-rule:nonzero;fill:rgb(50.196078%,50.196078%,50.196078%);fill-opacity:1;" d="M 276.957031 134.527344 L 281.601562 118.113281 L 276.441406 121.085938 L 271.066406 118.519531 Z M 276.957031 134.527344 "/>
<path style=" stroke:none;fill-rule:nonzero;fill:rgb(50.196078%,50.196078%,50.196078%);fill-opacity:1;" d="M 276.441406 121.082031 L 276.429688 120.738281 L 277.085938 120.714844 L 276.445312 121.085938 L 276.433594 120.742188 L 275.777344 120.765625 Z M 276.441406 121.082031 "/>
<path style="fill:none;stroke-width:1.309947;stroke-linecap:butt;stroke-linejoin:miter;stroke:rgb(50.196078%,50.196078%,50.196078%);stroke-opacity:1;stroke-miterlimit:10;" d="M 276.566406 66.621094 C 277.210938 61.472656 277.957031 55.507812 278.65625 49.910156 "/>
<path style=" stroke:none;fill-rule:nonzero;fill:rgb(50.196078%,50.196078%,50.196078%);fill-opacity:1;" d="M 280.371094 36.222656 L 273.128906 51.667969 L 278.703125 49.570312 L 283.589844 52.972656 Z M 280.371094 36.222656 "/>
<path style=" stroke:none;fill-rule:nonzero;fill:rgb(50.196078%,50.196078%,50.196078%);fill-opacity:1;" d="M 278.703125 49.570312 L 278.660156 49.910156 L 278.011719 49.828125 L 278.703125 49.566406 L 278.660156 49.90625 L 279.308594 49.988281 Z M 278.703125 49.570312 "/>
<path style="fill:none;stroke-width:1.309947;stroke-linecap:butt;stroke-linejoin:miter;stroke:rgb(50.196078%,50.196078%,50.196078%);stroke-opacity:1;stroke-miterlimit:10;" d="M 261.0625 79.949219 C 253.589844 79.753906 244.296875 79.511719 236.027344 79.292969 "/>
<path style=" stroke:none;fill-rule:nonzero;fill:rgb(50.196078%,50.196078%,50.196078%);fill-opacity:1;" d="M 222.238281 78.929688 L 238.316406 84.628906 L 235.683594 79.285156 L 238.59375 74.089844 Z M 222.238281 78.929688 "/>
<path style=" stroke:none;fill-rule:nonzero;fill:rgb(50.196078%,50.196078%,50.196078%);fill-opacity:1;" d="M 235.683594 79.285156 L 236.027344 79.292969 L 236.011719 79.949219 L 235.683594 79.285156 L 236.027344 79.292969 L 236.042969 78.636719 Z M 235.683594 79.285156 "/>
<path style="fill:none;stroke-width:1.309947;stroke-linecap:butt;stroke-linejoin:miter;stroke:rgb(50.196078%,50.196078%,50.196078%);stroke-opacity:1;stroke-miterlimit:10;" d="M 317.554688 70.246094 C 312.667969 71.398438 307.058594 72.710938 301.710938 73.972656 "/>
<path style=" stroke:none;fill-rule:nonzero;fill:rgb(50.196078%,50.196078%,50.196078%);fill-opacity:1;" d="M 288.285156 77.144531 L 305.285156 78.546875 L 301.375 74.054688 L 302.863281 68.289062 Z M 288.285156 77.144531 "/>
<path style=" stroke:none;fill-rule:nonzero;fill:rgb(50.196078%,50.196078%,50.196078%);fill-opacity:1;" d="M 301.378906 74.054688 L 301.714844 73.976562 L 301.867188 74.613281 L 301.382812 74.054688 L 301.71875 73.976562 L 301.566406 73.339844 Z M 301.378906 74.054688 "/>
<path style="fill:none;stroke-width:1.309947;stroke-linecap:butt;stroke-linejoin:miter;stroke:rgb(50.196078%,50.196078%,50.196078%);stroke-opacity:1;stroke-miterlimit:10;" d="M 332.945312 80.738281 C 334.222656 89.621094 335.863281 101.007812 337.300781 110.980469 "/>
<path style=" stroke:none;fill-rule:nonzero;fill:rgb(50.196078%,50.196078%,50.196078%);fill-opacity:1;" d="M 339.273438 124.632812 L 342.171875 107.820312 L 337.351562 111.316406 L 331.738281 109.328125 Z M 339.273438 124.632812 "/>
<path style=" stroke:none;fill-rule:nonzero;fill:rgb(50.196078%,50.196078%,50.196078%);fill-opacity:1;" d="M 337.351562 111.320312 L 337.300781 110.980469 L 337.949219 110.886719 L 337.351562 111.320312 L 337.300781 110.980469 L 336.652344 111.074219 Z M 337.351562 111.320312 "/>
<path style="fill:none;stroke-width:1.309947;stroke-linecap:butt;stroke-linejoin:miter;stroke:rgb(50.196078%,50.196078%,50.196078%);stroke-opacity:1;stroke-miterlimit:10;" d="M 320.789062 57.785156 C 315.296875 52.777344 308.523438 46.613281 302.484375 41.113281 "/>
<path style=" stroke:none;fill-rule:nonzero;fill:rgb(50.196078%,50.196078%,50.196078%);fill-opacity:1;" d="M 292.28125 31.820312 L 300.726562 46.644531 L 302.226562 40.882812 L 307.824219 38.851562 Z M 292.28125 31.820312 "/>
<path style=" stroke:none;fill-rule:nonzero;fill:rgb(50.196078%,50.196078%,50.196078%);fill-opacity:1;" d="M 302.226562 40.878906 L 302.480469 41.109375 L 302.039062 41.59375 L 302.226562 40.878906 L 302.480469 41.109375 L 302.921875 40.625 Z M 302.226562 40.878906 "/>
<path style="fill:none;stroke-width:1.309947;stroke-linecap:butt;stroke-linejoin:miter;stroke:rgb(50.196078%,50.196078%,50.196078%);stroke-opacity:1;stroke-miterlimit:10;" d="M 223.273438 148.585938 C 231.179688 148.546875 241.046875 148.503906 249.890625 148.457031 "/>
<path style=" stroke:none;fill-rule:nonzero;fill:rgb(50.196078%,50.196078%,50.196078%);fill-opacity:1;" d="M 263.6875 148.386719 L 247.4375 143.199219 L 250.234375 148.457031 L 247.488281 153.742188 Z M 263.6875 148.386719 "/>
<path style=" stroke:none;fill-rule:nonzero;fill:rgb(50.196078%,50.196078%,50.196078%);fill-opacity:1;" d="M 250.234375 148.453125 L 249.890625 148.453125 L 249.886719 147.796875 L 250.234375 148.449219 L 249.890625 148.449219 L 249.894531 149.105469 Z M 250.234375 148.453125 "/>
<path style="fill:none;stroke-width:1.309947;stroke-linecap:butt;stroke-linejoin:miter;stroke:rgb(50.196078%,50.196078%,50.196078%);stroke-opacity:1;stroke-miterlimit:10;" d="M 195.679688 148.5 C 187.808594 148.414062 177.980469 148.296875 169.175781 148.203125 "/>
<path style=" stroke:none;fill-rule:nonzero;fill:rgb(50.196078%,50.196078%,50.196078%);fill-opacity:1;" d="M 155.378906 148.058594 L 171.546875 153.503906 L 168.832031 148.203125 L 171.660156 142.960938 Z M 155.378906 148.058594 "/>
<path style=" stroke:none;fill-rule:nonzero;fill:rgb(50.196078%,50.196078%,50.196078%);fill-opacity:1;" d="M 168.832031 148.199219 L 169.175781 148.203125 L 169.167969 148.859375 L 168.832031 148.199219 L 169.175781 148.203125 L 169.183594 147.546875 Z M 168.832031 148.199219 "/>
<path style="fill:none;stroke-width:1.309947;stroke-linecap:butt;stroke-linejoin:miter;stroke:rgb(50.196078%,50.196078%,50.196078%);stroke-opacity:1;stroke-miterlimit:10;" d="M 209.480469 162.449219 C 209.484375 170.972656 209.484375 181.863281 209.488281 191.28125 "/>
<path style=" stroke:none;fill-rule:nonzero;fill:rgb(50.196078%,50.196078%,50.196078%);fill-opacity:1;" d="M 209.488281 205.082031 L 214.757812 188.855469 L 209.488281 191.628906 L 204.214844 188.859375 Z M 209.488281 205.082031 "/>
<path style=" stroke:none;fill-rule:nonzero;fill:rgb(50.196078%,50.196078%,50.196078%);fill-opacity:1;" d="M 209.488281 191.628906 L 209.488281 191.285156 L 210.144531 191.285156 L 209.488281 191.628906 L 209.488281 191.285156 L 208.832031 191.285156 Z M 209.488281 191.628906 "/>
<path style="fill:none;stroke-width:1.309947;stroke-linecap:butt;stroke-linejoin:miter;stroke:rgb(50.196078%,50.196078%,50.196078%);stroke-opacity:1;stroke-miterlimit:10;" d="M 209.273438 134.855469 C 209.148438 126.378906 208.988281 115.53125 208.851562 106.152344 "/>
<path style=" stroke:none;fill-rule:nonzero;fill:rgb(50.196078%,50.196078%,50.196078%);fill-opacity:1;" d="M 208.648438 92.359375 L 203.617188 108.660156 L 208.847656 105.8125 L 214.160156 108.503906 Z M 208.648438 92.359375 "/>
<path style=" stroke:none;fill-rule:nonzero;fill:rgb(50.196078%,50.196078%,50.196078%);fill-opacity:1;" d="M 208.847656 105.8125 L 208.851562 106.15625 L 208.195312 106.164062 L 208.84375 105.808594 L 208.847656 106.152344 L 209.503906 106.144531 Z M 208.847656 105.8125 "/>
<path style="fill:none;stroke-width:1.309947;stroke-linecap:butt;stroke-linejoin:miter;stroke:rgb(50.196078%,50.196078%,50.196078%);stroke-opacity:1;stroke-miterlimit:10;" d="M 276.945312 134.527344 C 276.636719 126.621094 276.25 116.734375 275.910156 107.886719 "/>
<path style=" stroke:none;fill-rule:nonzero;fill:rgb(50.196078%,50.196078%,50.196078%);fill-opacity:1;" d="M 275.382812 94.101562 L 270.738281 110.515625 L 275.898438 107.542969 L 281.273438 110.109375 Z M 275.382812 94.101562 "/>
<path style=" stroke:none;fill-rule:nonzero;fill:rgb(50.196078%,50.196078%,50.196078%);fill-opacity:1;" d="M 275.902344 107.542969 L 275.914062 107.886719 L 275.257812 107.910156 L 275.898438 107.539062 L 275.910156 107.882812 L 276.566406 107.859375 Z M 275.902344 107.542969 "/>
<path style="fill:none;stroke-width:1.309947;stroke-linecap:butt;stroke-linejoin:miter;stroke:rgb(50.196078%,50.196078%,50.196078%);stroke-opacity:1;stroke-miterlimit:10;" d="M 263.6875 148.378906 C 255.78125 148.417969 245.914062 148.460938 237.070312 148.507812 "/>
<path style=" stroke:none;fill-rule:nonzero;fill:rgb(50.196078%,50.196078%,50.196078%);fill-opacity:1;" d="M 223.273438 148.582031 L 239.523438 153.769531 L 236.726562 148.511719 L 239.472656 143.226562 Z M 223.273438 148.582031 "/>
<path style=" stroke:none;fill-rule:nonzero;fill:rgb(50.196078%,50.196078%,50.196078%);fill-opacity:1;" d="M 236.726562 148.511719 L 237.070312 148.511719 L 237.074219 149.167969 L 236.726562 148.515625 L 237.070312 148.515625 L 237.066406 147.859375 Z M 236.726562 148.511719 "/>
<path style="fill:none;stroke-width:1.309947;stroke-linecap:butt;stroke-linejoin:miter;stroke:rgb(50.196078%,50.196078%,50.196078%);stroke-opacity:1;stroke-miterlimit:10;" d="M 291.113281 146.171875 C 298.007812 145.085938 306.351562 143.769531 313.980469 142.570312 "/>
<path style=" stroke:none;fill-rule:nonzero;fill:rgb(50.196078%,50.196078%,50.196078%);fill-opacity:1;" d="M 327.613281 140.429688 L 310.765625 137.738281 L 314.320312 142.515625 L 312.398438 148.152344 Z M 327.613281 140.429688 "/>
<path style=" stroke:none;fill-rule:nonzero;fill:rgb(50.196078%,50.196078%,50.196078%);fill-opacity:1;" d="M 314.324219 142.515625 L 313.984375 142.570312 L 313.882812 141.921875 L 314.324219 142.515625 L 313.984375 142.570312 L 314.085938 143.21875 Z M 314.324219 142.515625 "/>
<path style="fill:none;stroke-width:1.309947;stroke-linecap:butt;stroke-linejoin:miter;stroke:rgb(50.196078%,50.196078%,50.196078%);stroke-opacity:1;stroke-miterlimit:10;" d="M 277.523438 162.109375 C 277.546875 170.335938 277.574219 180.632812 277.605469 189.824219 "/>
<path style=" stroke:none;fill-rule:nonzero;fill:rgb(50.196078%,50.196078%,50.196078%);fill-opacity:1;" d="M 277.648438 203.621094 L 282.867188 187.378906 L 277.605469 190.167969 L 272.324219 187.414062 Z M 277.648438 203.621094 "/>
<path style=" stroke:none;fill-rule:nonzero;fill:rgb(50.196078%,50.196078%,50.196078%);fill-opacity:1;" d="M 277.605469 190.167969 L 277.605469 189.824219 L 278.261719 189.820312 L 277.609375 190.167969 L 277.609375 189.824219 L 276.953125 189.828125 Z M 277.605469 190.167969 "/>
<path style="fill:none;stroke-width:1.309947;stroke-linecap:butt;stroke-linejoin:miter;stroke:rgb(50.196078%,50.196078%,50.196078%);stroke-opacity:1;stroke-miterlimit:10;" d="M 339.273438 124.632812 C 337.992188 115.75 336.355469 104.367188 334.917969 94.390625 "/>
<path style=" stroke:none;fill-rule:nonzero;fill:rgb(50.196078%,50.196078%,50.196078%);fill-opacity:1;" d="M 332.949219 80.734375 L 330.042969 97.542969 L 334.867188 94.046875 L 340.480469 96.039062 Z M 332.949219 80.734375 "/>
<path style=" stroke:none;fill-rule:nonzero;fill:rgb(50.196078%,50.196078%,50.196078%);fill-opacity:1;" d="M 334.867188 94.050781 L 334.917969 94.390625 L 334.269531 94.484375 L 334.867188 94.050781 L 334.917969 94.390625 L 335.566406 94.296875 Z M 334.867188 94.050781 "/>
<path style="fill:none;stroke-width:1.309947;stroke-linecap:butt;stroke-linejoin:miter;stroke:rgb(50.196078%,50.196078%,50.196078%);stroke-opacity:1;stroke-miterlimit:10;" d="M 327.613281 140.433594 C 320.714844 141.519531 312.371094 142.832031 304.746094 144.03125 "/>
<path style=" stroke:none;fill-rule:nonzero;fill:rgb(50.196078%,50.196078%,50.196078%);fill-opacity:1;" d="M 291.113281 146.171875 L 307.960938 148.859375 L 304.40625 144.082031 L 306.324219 138.445312 Z M 291.113281 146.171875 "/>
<path style=" stroke:none;fill-rule:nonzero;fill:rgb(50.196078%,50.196078%,50.196078%);fill-opacity:1;" d="M 304.40625 144.082031 L 304.746094 144.027344 L 304.847656 144.675781 L 304.40625 144.082031 L 304.746094 144.027344 L 304.644531 143.378906 Z M 304.40625 144.082031 "/>
<path style="fill:none;stroke-width:1.309947;stroke-linecap:butt;stroke-linejoin:miter;stroke:rgb(50.196078%,50.196078%,50.196078%);stroke-opacity:1;stroke-miterlimit:10;" d="M 341.726562 152.078125 C 342.03125 160.726562 342.402344 171.703125 342.738281 181.339844 "/>
<path style=" stroke:none;fill-rule:nonzero;fill:rgb(50.196078%,50.196078%,50.196078%);fill-opacity:1;" d="M 343.214844 195.128906 L 347.921875 178.730469 L 342.75 181.683594 L 337.386719 179.097656 Z M 343.214844 195.128906 "/>
<path style=" stroke:none;fill-rule:nonzero;fill:rgb(50.196078%,50.196078%,50.196078%);fill-opacity:1;" d="M 342.75 181.683594 L 342.738281 181.339844 L 343.394531 181.316406 L 342.75 181.683594 L 342.738281 181.339844 L 342.082031 181.363281 Z M 342.75 181.683594 "/>
<path style="fill:none;stroke-width:1.309947;stroke-linecap:butt;stroke-linejoin:miter;stroke:rgb(50.196078%,50.196078%,50.196078%);stroke-opacity:1;stroke-miterlimit:10;" d="M 277.65625 203.621094 C 277.632812 195.398438 277.605469 185.09375 277.574219 175.90625 "/>
<path style=" stroke:none;fill-rule:nonzero;fill:rgb(50.196078%,50.196078%,50.196078%);fill-opacity:1;" d="M 277.53125 162.109375 L 272.3125 178.351562 L 277.574219 175.5625 L 282.855469 178.316406 Z M 277.53125 162.109375 "/>
<path style=" stroke:none;fill-rule:nonzero;fill:rgb(50.196078%,50.196078%,50.196078%);fill-opacity:1;" d="M 277.574219 175.5625 L 277.574219 175.90625 L 276.917969 175.910156 L 277.570312 175.5625 L 277.570312 175.90625 L 278.226562 175.902344 Z M 277.574219 175.5625 "/>
<path style="fill:none;stroke-width:1.309947;stroke-linecap:butt;stroke-linejoin:miter;stroke:rgb(50.196078%,50.196078%,50.196078%);stroke-opacity:1;stroke-miterlimit:10;" d="M 291.378906 215.660156 C 298.820312 214.703125 308.023438 213.511719 316.324219 212.445312 "/>
<path style=" stroke:none;fill-rule:nonzero;fill:rgb(50.196078%,50.196078%,50.196078%);fill-opacity:1;" d="M 330.011719 210.683594 L 313.246094 207.527344 L 316.667969 212.402344 L 314.59375 217.984375 Z M 330.011719 210.683594 "/>
<path style=" stroke:none;fill-rule:nonzero;fill:rgb(50.196078%,50.196078%,50.196078%);fill-opacity:1;" d="M 316.667969 212.402344 L 316.328125 212.445312 L 316.246094 211.796875 L 316.671875 212.402344 L 316.332031 212.445312 L 316.414062 213.09375 Z M 316.667969 212.402344 "/>
<path style="fill:none;stroke-width:1.309947;stroke-linecap:butt;stroke-linejoin:miter;stroke:rgb(50.196078%,50.196078%,50.196078%);stroke-opacity:1;stroke-miterlimit:10;" d="M 276.949219 231.195312 C 276.523438 239.058594 275.988281 248.78125 275.507812 257.535156 "/>
<path style=" stroke:none;fill-rule:nonzero;fill:rgb(50.196078%,50.196078%,50.196078%);fill-opacity:1;" d="M 274.75 271.3125 L 280.902344 255.402344 L 275.488281 257.878906 L 270.375 254.824219 Z M 274.75 271.3125 "/>
<path style=" stroke:none;fill-rule:nonzero;fill:rgb(50.196078%,50.196078%,50.196078%);fill-opacity:1;" d="M 275.488281 257.878906 L 275.507812 257.535156 L 276.160156 257.570312 L 275.488281 257.878906 L 275.507812 257.535156 L 274.855469 257.5 Z M 275.488281 257.878906 "/>
<path style="fill:none;stroke-width:1.309947;stroke-linecap:butt;stroke-linejoin:miter;stroke:rgb(50.196078%,50.196078%,50.196078%);stroke-opacity:1;stroke-miterlimit:10;" d="M 263.898438 217.707031 C 255.929688 217.875 245.871094 218.09375 237.078125 218.28125 "/>
<path style=" stroke:none;fill-rule:nonzero;fill:rgb(50.196078%,50.196078%,50.196078%);fill-opacity:1;" d="M 223.285156 218.582031 L 239.621094 223.503906 L 236.738281 218.292969 L 239.394531 212.960938 Z M 223.285156 218.582031 "/>
<path style=" stroke:none;fill-rule:nonzero;fill:rgb(50.196078%,50.196078%,50.196078%);fill-opacity:1;" d="M 236.738281 218.292969 L 237.082031 218.285156 L 237.097656 218.941406 L 236.738281 218.292969 L 237.082031 218.285156 L 237.066406 217.628906 Z M 236.738281 218.292969 "/>
<path style="fill:none;stroke-width:1.309947;stroke-linecap:butt;stroke-linejoin:miter;stroke:rgb(50.196078%,50.196078%,50.196078%);stroke-opacity:1;stroke-miterlimit:10;" d="M 343.21875 195.128906 C 342.921875 186.488281 342.542969 175.503906 342.207031 165.867188 "/>
<path style=" stroke:none;fill-rule:nonzero;fill:rgb(50.196078%,50.196078%,50.196078%);fill-opacity:1;" d="M 341.726562 152.078125 L 337.023438 168.476562 L 342.195312 165.523438 L 347.5625 168.109375 Z M 341.726562 152.078125 "/>
<path style=" stroke:none;fill-rule:nonzero;fill:rgb(50.196078%,50.196078%,50.196078%);fill-opacity:1;" d="M 342.195312 165.523438 L 342.207031 165.867188 L 341.550781 165.890625 L 342.191406 165.523438 L 342.203125 165.867188 L 342.859375 165.84375 Z M 342.195312 165.523438 "/>
<path style="fill:none;stroke-width:1.309947;stroke-linecap:butt;stroke-linejoin:miter;stroke:rgb(50.196078%,50.196078%,50.196078%);stroke-opacity:1;stroke-miterlimit:10;" d="M 330.011719 210.6875 C 322.5625 211.648438 313.371094 212.832031 305.066406 213.898438 "/>
<path style=" stroke:none;fill-rule:nonzero;fill:rgb(50.196078%,50.196078%,50.196078%);fill-opacity:1;" d="M 291.378906 215.660156 L 308.144531 218.820312 L 304.722656 213.945312 L 306.800781 208.363281 Z M 291.378906 215.660156 "/>
<path style=" stroke:none;fill-rule:nonzero;fill:rgb(50.196078%,50.196078%,50.196078%);fill-opacity:1;" d="M 304.722656 213.941406 L 305.0625 213.898438 L 305.144531 214.546875 L 304.71875 213.941406 L 305.058594 213.898438 L 304.976562 213.25 Z M 304.722656 213.941406 "/>
<path style="fill:none;stroke-width:1.309947;stroke-linecap:butt;stroke-linejoin:miter;stroke:rgb(50.196078%,50.196078%,50.196078%);stroke-opacity:1;stroke-miterlimit:10;" d="M 343.136719 222.703125 C 342.816406 230.632812 342.410156 240.535156 342.042969 249.40625 "/>
<path style=" stroke:none;fill-rule:nonzero;fill:rgb(50.196078%,50.196078%,50.196078%);fill-opacity:1;" d="M 341.472656 263.191406 L 347.410156 247.199219 L 342.027344 249.75 L 336.875 246.761719 Z M 341.472656 263.191406 "/>
<path style=" stroke:none;fill-rule:nonzero;fill:rgb(50.196078%,50.196078%,50.196078%);fill-opacity:1;" d="M 342.03125 249.75 L 342.046875 249.40625 L 342.703125 249.433594 L 342.035156 249.75 L 342.050781 249.40625 L 341.394531 249.378906 Z M 342.03125 249.75 "/>
<path style="fill:none;stroke-width:1.309947;stroke-linecap:butt;stroke-linejoin:miter;stroke:rgb(50.196078%,50.196078%,50.196078%);stroke-opacity:1;stroke-miterlimit:10;" d="M 34.140625 74.121094 C 38.414062 74.664062 43.195312 75.269531 47.828125 75.863281 "/>
<path style=" stroke:none;fill-rule:nonzero;fill:rgb(50.196078%,50.196078%,50.196078%);fill-opacity:1;" d="M 61.515625 77.609375 L 46.089844 70.320312 L 48.171875 75.902344 L 44.753906 80.78125 Z M 61.515625 77.609375 "/>
<path style=" stroke:none;fill-rule:nonzero;fill:rgb(50.196078%,50.196078%,50.196078%);fill-opacity:1;" d="M 48.171875 75.902344 L 47.832031 75.859375 L 47.914062 75.210938 L 48.171875 75.90625 L 47.832031 75.863281 L 47.75 76.511719 Z M 48.171875 75.902344 "/>
<path style="fill:none;stroke-width:1.309947;stroke-linecap:butt;stroke-linejoin:miter;stroke:rgb(50.196078%,50.196078%,50.196078%);stroke-opacity:1;stroke-miterlimit:10;" d="M 19.210938 86.128906 C 18.359375 95.546875 17.25 107.761719 16.289062 118.355469 "/>
<path style=" stroke:none;fill-rule:nonzero;fill:rgb(50.196078%,50.196078%,50.196078%);fill-opacity:1;" d="M 15.042969 132.097656 L 21.757812 116.414062 L 16.257812 118.699219 L 11.257812 115.464844 Z M 15.042969 132.097656 "/>
<path style=" stroke:none;fill-rule:nonzero;fill:rgb(50.196078%,50.196078%,50.196078%);fill-opacity:1;" d="M 16.257812 118.699219 L 16.289062 118.355469 L 16.941406 118.414062 L 16.257812 118.699219 L 16.289062 118.355469 L 15.636719 118.296875 Z M 16.257812 118.699219 "/>
<path style="fill:none;stroke-width:1.309947;stroke-linecap:butt;stroke-linejoin:miter;stroke:rgb(50.196078%,50.196078%,50.196078%);stroke-opacity:1;stroke-miterlimit:10;" d="M 29.878906 62.3125 C 35.394531 56.417969 42.351562 48.984375 48.449219 42.46875 "/>
<path style=" stroke:none;fill-rule:nonzero;fill:rgb(50.196078%,50.196078%,50.196078%);fill-opacity:1;" d="M 57.878906 32.394531 L 42.941406 40.636719 L 48.683594 42.214844 L 50.636719 47.839844 Z M 57.878906 32.394531 "/>
<path style=" stroke:none;fill-rule:nonzero;fill:rgb(50.196078%,50.196078%,50.196078%);fill-opacity:1;" d="M 48.6875 42.214844 L 48.453125 42.464844 L 47.976562 42.015625 L 48.691406 42.210938 L 48.457031 42.460938 L 48.933594 42.910156 Z M 48.6875 42.214844 "/>
<path style="fill:none;stroke-width:1.309947;stroke-linecap:butt;stroke-linejoin:miter;stroke:rgb(50.196078%,50.196078%,50.196078%);stroke-opacity:1;stroke-miterlimit:10;" d="M 61.511719 77.628906 C 57.238281 77.085938 52.457031 76.480469 47.824219 75.886719 "/>
<path style=" stroke:none;fill-rule:nonzero;fill:rgb(50.196078%,50.196078%,50.196078%);fill-opacity:1;" d="M 34.140625 74.136719 L 49.566406 81.425781 L 47.484375 75.84375 L 50.902344 70.964844 Z M 34.140625 74.136719 "/>
<path style=" stroke:none;fill-rule:nonzero;fill:rgb(50.196078%,50.196078%,50.196078%);fill-opacity:1;" d="M 47.484375 75.84375 L 47.824219 75.886719 L 47.742188 76.535156 L 47.484375 75.839844 L 47.824219 75.882812 L 47.90625 75.234375 Z M 47.484375 75.84375 "/>
<path style="fill:none;stroke-width:1.309947;stroke-linecap:butt;stroke-linejoin:miter;stroke:rgb(50.196078%,50.196078%,50.196078%);stroke-opacity:1;stroke-miterlimit:10;" d="M 74.964844 93.15625 C 74.832031 100.96875 74.664062 110.632812 74.511719 119.328125 "/>
<path style=" stroke:none;fill-rule:nonzero;fill:rgb(50.196078%,50.196078%,50.196078%);fill-opacity:1;" d="M 74.273438 133.125 L 79.824219 116.992188 L 74.503906 119.671875 L 69.28125 116.808594 Z M 74.273438 133.125 "/>
<path style=" stroke:none;fill-rule:nonzero;fill:rgb(50.196078%,50.196078%,50.196078%);fill-opacity:1;" d="M 74.503906 119.671875 L 74.511719 119.328125 L 75.167969 119.339844 L 74.507812 119.671875 L 74.515625 119.328125 L 73.859375 119.316406 Z M 74.503906 119.671875 "/>
<path style="fill:none;stroke-width:1.309947;stroke-linecap:butt;stroke-linejoin:miter;stroke:rgb(50.196078%,50.196078%,50.196078%);stroke-opacity:1;stroke-miterlimit:10;" d="M 73.308594 65.695312 C 72.625 60.75 71.832031 55.023438 71.089844 49.65625 "/>
<path style=" stroke:none;fill-rule:nonzero;fill:rgb(50.196078%,50.196078%,50.196078%);fill-opacity:1;" d="M 69.199219 35.988281 L 66.199219 52.78125 L 71.042969 49.3125 L 76.644531 51.335938 Z M 69.199219 35.988281 "/>
<path style=" stroke:none;fill-rule:nonzero;fill:rgb(50.196078%,50.196078%,50.196078%);fill-opacity:1;" d="M 71.042969 49.316406 L 71.089844 49.65625 L 70.441406 49.746094 L 71.042969 49.316406 L 71.089844 49.65625 L 71.738281 49.566406 Z M 71.042969 49.316406 "/>
<path style="fill:none;stroke-width:1.309947;stroke-linecap:butt;stroke-linejoin:miter;stroke:rgb(50.196078%,50.196078%,50.196078%);stroke-opacity:1;stroke-miterlimit:10;" d="M 88.996094 79.070312 C 96.457031 78.910156 105.679688 78.71875 113.855469 78.542969 "/>
<path style=" stroke:none;fill-rule:nonzero;fill:rgb(50.196078%,50.196078%,50.196078%);fill-opacity:1;" d="M 127.648438 78.25 L 111.316406 73.324219 L 114.199219 78.535156 L 111.539062 83.863281 Z M 127.648438 78.25 "/>
<path style=" stroke:none;fill-rule:nonzero;fill:rgb(50.196078%,50.196078%,50.196078%);fill-opacity:1;" d="M 114.199219 78.535156 L 113.855469 78.542969 L 113.839844 77.886719 L 114.199219 78.535156 L 113.855469 78.542969 L 113.871094 79.199219 Z M 114.199219 78.535156 "/>
<path style="fill:none;stroke-width:1.309947;stroke-linecap:butt;stroke-linejoin:miter;stroke:rgb(50.196078%,50.196078%,50.196078%);stroke-opacity:1;stroke-miterlimit:10;" d="M 15.042969 132.097656 C 15.894531 122.683594 17.003906 110.460938 17.964844 99.867188 "/>
<path style=" stroke:none;fill-rule:nonzero;fill:rgb(50.196078%,50.196078%,50.196078%);fill-opacity:1;" d="M 19.207031 86.128906 L 12.492188 101.8125 L 17.992188 99.527344 L 22.992188 102.761719 Z M 19.207031 86.128906 "/>
<path style=" stroke:none;fill-rule:nonzero;fill:rgb(50.196078%,50.196078%,50.196078%);fill-opacity:1;" d="M 17.996094 99.527344 L 17.964844 99.871094 L 17.3125 99.8125 L 17.996094 99.527344 L 17.964844 99.871094 L 18.617188 99.929688 Z M 17.996094 99.527344 "/>
<path style="fill:none;stroke-width:1.309947;stroke-linecap:butt;stroke-linejoin:miter;stroke:rgb(50.196078%,50.196078%,50.196078%);stroke-opacity:1;stroke-miterlimit:10;" d="M 27.59375 146.074219 C 33.359375 146.171875 40.097656 146.304688 46.445312 146.417969 "/>
<path style=" stroke:none;fill-rule:nonzero;fill:rgb(50.196078%,50.196078%,50.196078%);fill-opacity:1;" d="M 60.238281 146.667969 L 44.113281 141.105469 L 46.789062 146.425781 L 43.921875 151.648438 Z M 60.238281 146.667969 "/>
<path style=" stroke:none;fill-rule:nonzero;fill:rgb(50.196078%,50.196078%,50.196078%);fill-opacity:1;" d="M 46.789062 146.425781 L 46.445312 146.417969 L 46.457031 145.761719 L 46.789062 146.421875 L 46.445312 146.414062 L 46.433594 147.070312 Z M 46.789062 146.425781 "/>
<path style="fill:none;stroke-width:1.309947;stroke-linecap:butt;stroke-linejoin:miter;stroke:rgb(50.196078%,50.196078%,50.196078%);stroke-opacity:1;stroke-miterlimit:10;" d="M 14.921875 159.589844 C 15.683594 168.917969 16.675781 181.023438 17.535156 191.519531 "/>
<path style=" stroke:none;fill-rule:nonzero;fill:rgb(50.196078%,50.196078%,50.196078%);fill-opacity:1;" d="M 18.664062 205.273438 L 22.59375 188.671875 L 17.566406 191.863281 L 12.085938 189.53125 Z M 18.664062 205.273438 "/>
<path style=" stroke:none;fill-rule:nonzero;fill:rgb(50.196078%,50.196078%,50.196078%);fill-opacity:1;" d="M 17.566406 191.863281 L 17.539062 191.519531 L 18.191406 191.464844 L 17.566406 191.863281 L 17.539062 191.519531 L 16.886719 191.574219 Z M 17.566406 191.863281 "/>
<path style="fill:none;stroke-width:1.309947;stroke-linecap:butt;stroke-linejoin:miter;stroke:rgb(50.196078%,50.196078%,50.196078%);stroke-opacity:1;stroke-miterlimit:10;" d="M 74.273438 133.125 C 74.410156 125.3125 74.574219 115.65625 74.726562 106.953125 "/>
<path style=" stroke:none;fill-rule:nonzero;fill:rgb(50.196078%,50.196078%,50.196078%);fill-opacity:1;" d="M 74.960938 93.15625 L 69.410156 109.289062 L 74.730469 106.609375 L 79.953125 109.472656 Z M 74.960938 93.15625 "/>
<path style=" stroke:none;fill-rule:nonzero;fill:rgb(50.196078%,50.196078%,50.196078%);fill-opacity:1;" d="M 74.730469 106.609375 L 74.722656 106.953125 L 74.066406 106.941406 L 74.726562 106.609375 L 74.71875 106.953125 L 75.375 106.964844 Z M 74.730469 106.609375 "/>
<path style="fill:none;stroke-width:1.309947;stroke-linecap:butt;stroke-linejoin:miter;stroke:rgb(50.196078%,50.196078%,50.196078%);stroke-opacity:1;stroke-miterlimit:10;" d="M 60.238281 146.6875 C 54.472656 146.589844 47.734375 146.472656 41.386719 146.355469 "/>
<path style=" stroke:none;fill-rule:nonzero;fill:rgb(50.196078%,50.196078%,50.196078%);fill-opacity:1;" d="M 27.59375 146.097656 L 43.71875 151.671875 L 41.046875 146.347656 L 43.917969 141.128906 Z M 27.59375 146.097656 "/>
<path style=" stroke:none;fill-rule:nonzero;fill:rgb(50.196078%,50.196078%,50.196078%);fill-opacity:1;" d="M 41.042969 146.347656 L 41.386719 146.355469 L 41.375 147.011719 L 41.042969 146.351562 L 41.386719 146.359375 L 41.398438 145.703125 Z M 41.042969 146.347656 "/>
<path style="fill:none;stroke-width:1.309947;stroke-linecap:butt;stroke-linejoin:miter;stroke:rgb(50.196078%,50.196078%,50.196078%);stroke-opacity:1;stroke-miterlimit:10;" d="M 87.828125 147.121094 C 95.636719 147.234375 105.292969 147.371094 113.988281 147.5 "/>
<path style=" stroke:none;fill-rule:nonzero;fill:rgb(50.196078%,50.196078%,50.196078%);fill-opacity:1;" d="M 127.785156 147.707031 L 111.640625 142.195312 L 114.332031 147.507812 L 111.484375 152.738281 Z M 127.785156 147.707031 "/>
<path style=" stroke:none;fill-rule:nonzero;fill:rgb(50.196078%,50.196078%,50.196078%);fill-opacity:1;" d="M 114.335938 147.503906 L 113.992188 147.5 L 114 146.84375 L 114.335938 147.503906 L 113.992188 147.5 L 113.984375 148.15625 Z M 114.335938 147.503906 "/>
<path style="fill:none;stroke-width:1.309947;stroke-linecap:butt;stroke-linejoin:miter;stroke:rgb(50.196078%,50.196078%,50.196078%);stroke-opacity:1;stroke-miterlimit:10;" d="M 74.285156 160.714844 C 74.429688 168.554688 74.605469 178.246094 74.765625 186.96875 "/>
<path style=" stroke:none;fill-rule:nonzero;fill:rgb(50.196078%,50.196078%,50.196078%);fill-opacity:1;" d="M 75.019531 200.761719 L 79.992188 184.445312 L 74.773438 187.3125 L 69.453125 184.636719 Z M 75.019531 200.761719 "/>
<path style=" stroke:none;fill-rule:nonzero;fill:rgb(50.196078%,50.196078%,50.196078%);fill-opacity:1;" d="M 74.773438 187.308594 L 74.765625 186.964844 L 75.421875 186.953125 L 74.773438 187.308594 L 74.765625 186.964844 L 74.109375 186.976562 Z M 74.773438 187.308594 "/>
<path style="fill:none;stroke-width:1.309947;stroke-linecap:butt;stroke-linejoin:miter;stroke:rgb(50.196078%,50.196078%,50.196078%);stroke-opacity:1;stroke-miterlimit:10;" d="M 155.378906 148.054688 C 163.246094 148.136719 173.078125 148.242188 181.882812 148.34375 "/>
<path style=" stroke:none;fill-rule:nonzero;fill:rgb(50.196078%,50.196078%,50.196078%);fill-opacity:1;" d="M 195.679688 148.5 L 179.515625 143.046875 L 182.226562 148.347656 L 179.394531 153.589844 Z M 195.679688 148.5 "/>
<path style=" stroke:none;fill-rule:nonzero;fill:rgb(50.196078%,50.196078%,50.196078%);fill-opacity:1;" d="M 182.226562 148.347656 L 181.882812 148.34375 L 181.890625 147.6875 L 182.226562 148.347656 L 181.882812 148.34375 L 181.875 149 Z M 182.226562 148.347656 "/>
<path style="fill:none;stroke-width:1.309947;stroke-linecap:butt;stroke-linejoin:miter;stroke:rgb(50.196078%,50.196078%,50.196078%);stroke-opacity:1;stroke-miterlimit:10;" d="M 127.785156 147.703125 C 119.976562 147.585938 110.3125 147.4375 101.625 147.3125 "/>
<path style=" stroke:none;fill-rule:nonzero;fill:rgb(50.196078%,50.196078%,50.196078%);fill-opacity:1;" d="M 87.828125 147.117188 L 103.976562 152.621094 L 101.28125 147.308594 L 104.128906 142.078125 Z M 87.828125 147.117188 "/>
<path style=" stroke:none;fill-rule:nonzero;fill:rgb(50.196078%,50.196078%,50.196078%);fill-opacity:1;" d="M 101.28125 147.308594 L 101.625 147.3125 L 101.617188 147.96875 L 101.28125 147.308594 L 101.625 147.3125 L 101.632812 146.65625 Z M 101.28125 147.308594 "/>
<path style="fill:none;stroke-width:1.309947;stroke-linecap:butt;stroke-linejoin:miter;stroke:rgb(50.196078%,50.196078%,50.196078%);stroke-opacity:1;stroke-miterlimit:10;" d="M 141.605469 161.707031 C 141.621094 170.171875 141.636719 180.980469 141.648438 190.339844 "/>
<path style=" stroke:none;fill-rule:nonzero;fill:rgb(50.196078%,50.196078%,50.196078%);fill-opacity:1;" d="M 141.671875 204.136719 L 146.917969 187.902344 L 141.652344 190.683594 L 136.375 187.921875 Z M 141.671875 204.136719 "/>
<path style=" stroke:none;fill-rule:nonzero;fill:rgb(50.196078%,50.196078%,50.196078%);fill-opacity:1;" d="M 141.652344 190.683594 L 141.652344 190.339844 L 142.308594 190.339844 L 141.652344 190.683594 L 141.652344 190.339844 L 140.996094 190.339844 Z M 141.652344 190.683594 "/>
<path style="fill:none;stroke-width:1.309947;stroke-linecap:butt;stroke-linejoin:miter;stroke:rgb(50.196078%,50.196078%,50.196078%);stroke-opacity:1;stroke-miterlimit:10;" d="M 141.550781 134.113281 C 141.53125 125.675781 141.519531 114.882812 141.5 105.554688 "/>
<path style=" stroke:none;fill-rule:nonzero;fill:rgb(50.196078%,50.196078%,50.196078%);fill-opacity:1;" d="M 141.472656 91.757812 L 136.234375 107.992188 L 141.5 105.210938 L 146.777344 107.972656 Z M 141.472656 91.757812 "/>
<path style=" stroke:none;fill-rule:nonzero;fill:rgb(50.196078%,50.196078%,50.196078%);fill-opacity:1;" d="M 141.5 105.210938 L 141.5 105.554688 L 140.84375 105.554688 L 141.496094 105.210938 L 141.496094 105.554688 L 142.152344 105.554688 Z M 141.5 105.210938 "/>
<path style="fill:none;stroke-width:1.309947;stroke-linecap:butt;stroke-linejoin:miter;stroke:rgb(50.196078%,50.196078%,50.196078%);stroke-opacity:1;stroke-miterlimit:10;" d="M 18.664062 205.273438 C 17.902344 195.945312 16.910156 183.839844 16.050781 173.34375 "/>
<path style=" stroke:none;fill-rule:nonzero;fill:rgb(50.196078%,50.196078%,50.196078%);fill-opacity:1;" d="M 14.921875 159.589844 L 10.992188 176.191406 L 16.019531 173 L 21.5 175.332031 Z M 14.921875 159.589844 "/>
<path style=" stroke:none;fill-rule:nonzero;fill:rgb(50.196078%,50.196078%,50.196078%);fill-opacity:1;" d="M 16.019531 172.996094 L 16.046875 173.339844 L 15.394531 173.394531 L 16.019531 172.996094 L 16.046875 173.339844 L 16.699219 173.285156 Z M 16.019531 172.996094 "/>
<path style="fill:none;stroke-width:1.309947;stroke-linecap:butt;stroke-linejoin:miter;stroke:rgb(50.196078%,50.196078%,50.196078%);stroke-opacity:1;stroke-miterlimit:10;" d="M 33.539062 217.910156 C 37.964844 217.550781 42.949219 217.15625 47.765625 216.769531 "/>
<path style=" stroke:none;fill-rule:nonzero;fill:rgb(50.196078%,50.196078%,50.196078%);fill-opacity:1;" d="M 61.519531 215.664062 L 44.925781 211.710938 L 48.109375 216.742188 L 45.769531 222.21875 Z M 61.519531 215.664062 "/>
<path style=" stroke:none;fill-rule:nonzero;fill:rgb(50.196078%,50.196078%,50.196078%);fill-opacity:1;" d="M 48.109375 216.742188 L 47.765625 216.769531 L 47.714844 216.117188 L 48.109375 216.742188 L 47.765625 216.769531 L 47.816406 217.421875 Z M 48.109375 216.742188 "/>
<path style="fill:none;stroke-width:1.309947;stroke-linecap:butt;stroke-linejoin:miter;stroke:rgb(50.196078%,50.196078%,50.196078%);stroke-opacity:1;stroke-miterlimit:10;" d="M 28.492188 229.726562 C 33.425781 235.796875 39.597656 243.382812 45.019531 250.050781 "/>
<path style=" stroke:none;fill-rule:nonzero;fill:rgb(50.196078%,50.196078%,50.196078%);fill-opacity:1;" d="M 53.726562 260.757812 L 47.578125 244.84375 L 45.238281 250.320312 L 39.398438 251.496094 Z M 53.726562 260.757812 "/>
<path style=" stroke:none;fill-rule:nonzero;fill:rgb(50.196078%,50.196078%,50.196078%);fill-opacity:1;" d="M 45.238281 250.320312 L 45.019531 250.054688 L 45.527344 249.640625 L 45.238281 250.320312 L 45.019531 250.054688 L 44.511719 250.46875 Z M 45.238281 250.320312 "/>
<path style="fill:none;stroke-width:1.309947;stroke-linecap:butt;stroke-linejoin:miter;stroke:rgb(50.196078%,50.196078%,50.196078%);stroke-opacity:1;stroke-miterlimit:10;" d="M 75.019531 200.761719 C 74.875 192.925781 74.699219 183.234375 74.539062 174.507812 "/>
<path style=" stroke:none;fill-rule:nonzero;fill:rgb(50.196078%,50.196078%,50.196078%);fill-opacity:1;" d="M 74.285156 160.714844 L 69.3125 177.03125 L 74.53125 174.164062 L 79.851562 176.839844 Z M 74.285156 160.714844 "/>
<path style=" stroke:none;fill-rule:nonzero;fill:rgb(50.196078%,50.196078%,50.196078%);fill-opacity:1;" d="M 74.53125 174.164062 L 74.539062 174.507812 L 73.882812 174.519531 L 74.53125 174.164062 L 74.539062 174.507812 L 75.195312 174.496094 Z M 74.53125 174.164062 "/>
<path style="fill:none;stroke-width:1.309947;stroke-linecap:butt;stroke-linejoin:miter;stroke:rgb(50.196078%,50.196078%,50.196078%);stroke-opacity:1;stroke-miterlimit:10;" d="M 61.519531 215.652344 C 57.09375 216.003906 52.109375 216.410156 47.292969 216.800781 "/>
<path style=" stroke:none;fill-rule:nonzero;fill:rgb(50.196078%,50.196078%,50.196078%);fill-opacity:1;" d="M 33.539062 217.910156 L 50.136719 221.855469 L 46.949219 216.824219 L 49.285156 211.347656 Z M 33.539062 217.910156 "/>
<path style=" stroke:none;fill-rule:nonzero;fill:rgb(50.196078%,50.196078%,50.196078%);fill-opacity:1;" d="M 46.949219 216.828125 L 47.292969 216.800781 L 47.347656 217.453125 L 46.953125 216.828125 L 47.296875 216.800781 L 47.242188 216.148438 Z M 46.949219 216.828125 "/>
<path style="fill:none;stroke-width:1.309947;stroke-linecap:butt;stroke-linejoin:miter;stroke:rgb(50.196078%,50.196078%,50.196078%);stroke-opacity:1;stroke-miterlimit:10;" d="M 72.238281 228.015625 C 71.089844 233.113281 69.757812 239.015625 68.507812 244.542969 "/>
<path style=" stroke:none;fill-rule:nonzero;fill:rgb(50.196078%,50.196078%,50.196078%);fill-opacity:1;" d="M 65.472656 258.003906 L 74.1875 243.339844 L 68.433594 244.882812 L 63.902344 241.019531 Z M 65.472656 258.003906 "/>
<path style=" stroke:none;fill-rule:nonzero;fill:rgb(50.196078%,50.196078%,50.196078%);fill-opacity:1;" d="M 68.433594 244.878906 L 68.507812 244.542969 L 69.148438 244.6875 L 68.433594 244.878906 L 68.507812 244.542969 L 67.867188 244.398438 Z M 68.433594 244.878906 "/>
<path style="fill:none;stroke-width:1.309947;stroke-linecap:butt;stroke-linejoin:miter;stroke:rgb(50.196078%,50.196078%,50.196078%);stroke-opacity:1;stroke-miterlimit:10;" d="M 89.050781 215.253906 C 96.535156 215.632812 105.851562 216.105469 114.132812 216.527344 "/>
<path style=" stroke:none;fill-rule:nonzero;fill:rgb(50.196078%,50.196078%,50.196078%);fill-opacity:1;" d="M 127.914062 217.230469 L 111.980469 211.140625 L 114.480469 216.546875 L 111.445312 221.671875 Z M 127.914062 217.230469 "/>
<path style=" stroke:none;fill-rule:nonzero;fill:rgb(50.196078%,50.196078%,50.196078%);fill-opacity:1;" d="M 114.480469 216.546875 L 114.136719 216.53125 L 114.171875 215.878906 L 114.480469 216.550781 L 114.136719 216.535156 L 114.101562 217.1875 Z M 114.480469 216.546875 "/>
<path style="fill:none;stroke-width:1.309947;stroke-linecap:butt;stroke-linejoin:miter;stroke:rgb(50.196078%,50.196078%,50.196078%);stroke-opacity:1;stroke-miterlimit:10;" d="M 341.460938 263.191406 C 341.78125 255.261719 342.1875 245.359375 342.554688 236.488281 "/>
<path style=" stroke:none;fill-rule:nonzero;fill:rgb(50.196078%,50.196078%,50.196078%);fill-opacity:1;" d="M 343.125 222.703125 L 337.1875 238.695312 L 342.570312 236.144531 L 347.722656 239.132812 Z M 343.125 222.703125 "/>
<path style=" stroke:none;fill-rule:nonzero;fill:rgb(50.196078%,50.196078%,50.196078%);fill-opacity:1;" d="M 342.570312 236.144531 L 342.554688 236.488281 L 341.898438 236.460938 L 342.566406 236.144531 L 342.550781 236.488281 L 343.207031 236.515625 Z M 342.570312 236.144531 "/>
<path style="fill:none;stroke-width:1.309947;stroke-linecap:butt;stroke-linejoin:miter;stroke:rgb(50.196078%,50.196078%,50.196078%);stroke-opacity:1;stroke-miterlimit:10;" d="M 327.207031 278.640625 C 319.503906 279.574219 309.96875 280.730469 301.386719 281.769531 "/>
<path style=" stroke:none;fill-rule:nonzero;fill:rgb(50.196078%,50.196078%,50.196078%);fill-opacity:1;" d="M 287.691406 283.429688 L 304.433594 286.710938 L 301.046875 281.8125 L 303.164062 276.246094 Z M 287.691406 283.429688 "/>
<path style=" stroke:none;fill-rule:nonzero;fill:rgb(50.196078%,50.196078%,50.196078%);fill-opacity:1;" d="M 301.046875 281.808594 L 301.390625 281.765625 L 301.46875 282.414062 L 301.046875 281.804688 L 301.390625 281.761719 L 301.3125 281.113281 Z M 301.046875 281.808594 "/>
<path style="fill:none;stroke-width:1.309947;stroke-linecap:butt;stroke-linejoin:miter;stroke:rgb(50.196078%,50.196078%,50.196078%);stroke-opacity:1;stroke-miterlimit:10;" d="M 274.738281 271.3125 C 275.164062 263.449219 275.699219 253.726562 276.179688 244.972656 "/>
<path style=" stroke:none;fill-rule:nonzero;fill:rgb(50.196078%,50.196078%,50.196078%);fill-opacity:1;" d="M 276.9375 231.195312 L 270.785156 247.105469 L 276.199219 244.628906 L 281.3125 247.683594 Z M 276.9375 231.195312 "/>
<path style=" stroke:none;fill-rule:nonzero;fill:rgb(50.196078%,50.196078%,50.196078%);fill-opacity:1;" d="M 276.199219 244.628906 L 276.179688 244.972656 L 275.527344 244.9375 L 276.199219 244.628906 L 276.179688 244.972656 L 276.832031 245.007812 Z M 276.199219 244.628906 "/>
<path style="fill:none;stroke-width:1.309947;stroke-linecap:butt;stroke-linejoin:miter;stroke:rgb(50.196078%,50.196078%,50.196078%);stroke-opacity:1;stroke-miterlimit:10;" d="M 287.691406 283.429688 C 295.402344 282.496094 304.933594 281.339844 313.511719 280.300781 "/>
<path style=" stroke:none;fill-rule:nonzero;fill:rgb(50.196078%,50.196078%,50.196078%);fill-opacity:1;" d="M 327.207031 278.640625 L 310.464844 275.359375 L 313.851562 280.257812 L 311.734375 285.824219 Z M 327.207031 278.640625 "/>
<path style=" stroke:none;fill-rule:nonzero;fill:rgb(50.196078%,50.196078%,50.196078%);fill-opacity:1;" d="M 313.851562 280.257812 L 313.507812 280.300781 L 313.429688 279.652344 L 313.851562 280.261719 L 313.507812 280.304688 L 313.585938 280.953125 Z M 313.851562 280.257812 "/>
<path style="fill:none;stroke-width:1.309947;stroke-linecap:butt;stroke-linejoin:miter;stroke:rgb(50.196078%,50.196078%,50.196078%);stroke-opacity:1;stroke-miterlimit:10;" d="M 260.199219 285.308594 C 251.8125 285.441406 241.191406 285.613281 231.804688 285.761719 "/>
<path style=" stroke:none;fill-rule:nonzero;fill:rgb(50.196078%,50.196078%,50.196078%);fill-opacity:1;" d="M 218.007812 285.980469 L 234.3125 290.992188 L 231.457031 285.765625 L 234.144531 280.449219 Z M 218.007812 285.980469 "/>
<path style=" stroke:none;fill-rule:nonzero;fill:rgb(50.196078%,50.196078%,50.196078%);fill-opacity:1;" d="M 231.457031 285.765625 L 231.800781 285.761719 L 231.8125 286.417969 L 231.457031 285.769531 L 231.800781 285.765625 L 231.789062 285.109375 Z M 231.457031 285.765625 "/>
<path style="fill:none;stroke-width:1.309947;stroke-linecap:butt;stroke-linejoin:miter;stroke:rgb(50.196078%,50.196078%,50.196078%);stroke-opacity:1;stroke-miterlimit:10;" d="M 218.007812 285.984375 C 226.398438 285.851562 237.007812 285.679688 246.402344 285.53125 "/>
<path style=" stroke:none;fill-rule:nonzero;fill:rgb(50.196078%,50.196078%,50.196078%);fill-opacity:1;" d="M 260.199219 285.308594 L 243.890625 280.296875 L 246.746094 285.523438 L 244.058594 290.839844 Z M 260.199219 285.308594 "/>
<path style=" stroke:none;fill-rule:nonzero;fill:rgb(50.196078%,50.196078%,50.196078%);fill-opacity:1;" d="M 246.746094 285.523438 L 246.402344 285.527344 L 246.390625 284.871094 L 246.746094 285.519531 L 246.402344 285.523438 L 246.414062 286.179688 Z M 246.746094 285.523438 "/>
<path style="fill:none;stroke-width:1.309947;stroke-linecap:butt;stroke-linejoin:miter;stroke:rgb(50.196078%,50.196078%,50.196078%);stroke-opacity:1;stroke-miterlimit:10;" d="M 205.285156 272.449219 C 205.894531 264.667969 206.648438 254.957031 207.324219 246.390625 "/>
<path style=" stroke:none;fill-rule:nonzero;fill:rgb(50.196078%,50.196078%,50.196078%);fill-opacity:1;" d="M 208.410156 232.632812 L 201.878906 248.394531 L 207.351562 246.046875 L 212.390625 249.222656 Z M 208.410156 232.632812 "/>
<path style=" stroke:none;fill-rule:nonzero;fill:rgb(50.196078%,50.196078%,50.196078%);fill-opacity:1;" d="M 207.351562 246.042969 L 207.324219 246.386719 L 206.671875 246.335938 L 207.351562 246.042969 L 207.324219 246.386719 L 207.976562 246.4375 Z M 207.351562 246.042969 "/>
<path style="fill:none;stroke-width:1.309947;stroke-linecap:butt;stroke-linejoin:miter;stroke:rgb(50.196078%,50.196078%,50.196078%);stroke-opacity:1;stroke-miterlimit:10;" d="M 190.425781 285.597656 C 181.769531 285.21875 170.605469 284.726562 160.964844 284.304688 "/>
<path style=" stroke:none;fill-rule:nonzero;fill:rgb(50.196078%,50.196078%,50.196078%);fill-opacity:1;" d="M 147.179688 283.699219 L 163.15625 289.675781 L 160.617188 284.289062 L 163.617188 279.144531 Z M 147.179688 283.699219 "/>
<path style=" stroke:none;fill-rule:nonzero;fill:rgb(50.196078%,50.196078%,50.196078%);fill-opacity:1;" d="M 160.621094 284.289062 L 160.964844 284.304688 L 160.9375 284.960938 L 160.621094 284.292969 L 160.964844 284.308594 L 160.992188 283.652344 Z M 160.621094 284.289062 "/>
<path style="fill:none;stroke-width:1.309947;stroke-linecap:butt;stroke-linejoin:miter;stroke:rgb(50.196078%,50.196078%,50.196078%);stroke-opacity:1;stroke-miterlimit:10;" d="M 209.480469 205.082031 C 209.472656 196.761719 209.472656 185.835938 209.472656 176.25 "/>
<path style=" stroke:none;fill-rule:nonzero;fill:rgb(50.196078%,50.196078%,50.196078%);fill-opacity:1;" d="M 209.476562 162.449219 L 204.203125 178.671875 L 209.476562 175.902344 L 214.75 178.675781 Z M 209.476562 162.449219 "/>
<path style=" stroke:none;fill-rule:nonzero;fill:rgb(50.196078%,50.196078%,50.196078%);fill-opacity:1;" d="M 209.476562 175.902344 L 209.476562 176.246094 L 208.820312 176.246094 L 209.476562 175.902344 L 209.476562 176.246094 L 210.132812 176.246094 Z M 209.476562 175.902344 "/>
<path style="fill:none;stroke-width:1.309947;stroke-linecap:butt;stroke-linejoin:miter;stroke:rgb(50.196078%,50.196078%,50.196078%);stroke-opacity:1;stroke-miterlimit:10;" d="M 223.285156 218.582031 C 231.117188 218.414062 241.15625 218.199219 250.105469 218.007812 "/>
<path style=" stroke:none;fill-rule:nonzero;fill:rgb(50.196078%,50.196078%,50.196078%);fill-opacity:1;" d="M 263.898438 217.714844 L 247.566406 212.789062 L 250.449219 218 L 247.789062 223.328125 Z M 263.898438 217.714844 "/>
<path style=" stroke:none;fill-rule:nonzero;fill:rgb(50.196078%,50.196078%,50.196078%);fill-opacity:1;" d="M 250.449219 218 L 250.105469 218.007812 L 250.089844 217.351562 L 250.449219 218 L 250.105469 218.007812 L 250.121094 218.664062 Z M 250.449219 218 "/>
<path style="fill:none;stroke-width:1.309947;stroke-linecap:butt;stroke-linejoin:miter;stroke:rgb(50.196078%,50.196078%,50.196078%);stroke-opacity:1;stroke-miterlimit:10;" d="M 208.414062 232.632812 C 207.816406 240.242188 207.054688 250 206.371094 258.691406 "/>
<path style=" stroke:none;fill-rule:nonzero;fill:rgb(50.196078%,50.196078%,50.196078%);fill-opacity:1;" d="M 205.292969 272.449219 L 211.820312 256.6875 L 206.347656 259.039062 L 201.308594 255.863281 Z M 205.292969 272.449219 "/>
<path style=" stroke:none;fill-rule:nonzero;fill:rgb(50.196078%,50.196078%,50.196078%);fill-opacity:1;" d="M 206.347656 259.035156 L 206.375 258.691406 L 207.027344 258.742188 L 206.347656 259.035156 L 206.375 258.691406 L 205.722656 258.640625 Z M 206.347656 259.035156 "/>
<path style="fill:none;stroke-width:1.309947;stroke-linecap:butt;stroke-linejoin:miter;stroke:rgb(50.196078%,50.196078%,50.196078%);stroke-opacity:1;stroke-miterlimit:10;" d="M 195.695312 218.6875 C 187.980469 218.582031 178.019531 218.4375 169.285156 218.316406 "/>
<path style=" stroke:none;fill-rule:nonzero;fill:rgb(50.196078%,50.196078%,50.196078%);fill-opacity:1;" d="M 155.492188 218.125 L 171.640625 223.621094 L 168.941406 218.3125 L 171.785156 213.078125 Z M 155.492188 218.125 "/>
<path style=" stroke:none;fill-rule:nonzero;fill:rgb(50.196078%,50.196078%,50.196078%);fill-opacity:1;" d="M 168.941406 218.3125 L 169.285156 218.316406 L 169.277344 218.972656 L 168.941406 218.3125 L 169.285156 218.316406 L 169.292969 217.660156 Z M 168.941406 218.3125 "/>
<path style="fill:none;stroke-width:1.309947;stroke-linecap:butt;stroke-linejoin:miter;stroke:rgb(50.196078%,50.196078%,50.196078%);stroke-opacity:1;stroke-miterlimit:10;" d="M 65.46875 258.003906 C 66.597656 252.992188 67.933594 247.074219 69.199219 241.476562 "/>
<path style=" stroke:none;fill-rule:nonzero;fill:rgb(50.196078%,50.196078%,50.196078%);fill-opacity:1;" d="M 72.234375 228.015625 L 63.519531 242.683594 L 69.273438 241.140625 L 73.804688 245.003906 Z M 72.234375 228.015625 "/>
<path style=" stroke:none;fill-rule:nonzero;fill:rgb(50.196078%,50.196078%,50.196078%);fill-opacity:1;" d="M 69.273438 241.136719 L 69.199219 241.472656 L 68.558594 241.328125 L 69.273438 241.136719 L 69.199219 241.472656 L 69.839844 241.617188 Z M 69.273438 241.136719 "/>
<path style="fill:none;stroke-width:1.309947;stroke-linecap:butt;stroke-linejoin:miter;stroke:rgb(50.196078%,50.196078%,50.196078%);stroke-opacity:1;stroke-miterlimit:10;" d="M 76.050781 273.691406 C 84.691406 275.109375 96.320312 277.011719 106.167969 278.625 "/>
<path style=" stroke:none;fill-rule:nonzero;fill:rgb(50.196078%,50.196078%,50.196078%);fill-opacity:1;" d="M 119.78125 280.859375 L 104.625 273.03125 L 106.507812 278.683594 L 102.917969 283.4375 Z M 119.78125 280.859375 "/>
<path style=" stroke:none;fill-rule:nonzero;fill:rgb(50.196078%,50.196078%,50.196078%);fill-opacity:1;" d="M 106.503906 278.683594 L 106.164062 278.628906 L 106.269531 277.984375 L 106.503906 278.6875 L 106.164062 278.632812 L 106.058594 279.277344 Z M 106.503906 278.683594 "/>
<path style="fill:none;stroke-width:1.309947;stroke-linecap:butt;stroke-linejoin:miter;stroke:rgb(50.196078%,50.196078%,50.196078%);stroke-opacity:1;stroke-miterlimit:10;" d="M 147.179688 283.699219 C 155.679688 284.074219 166.871094 284.5625 176.640625 284.992188 "/>
<path style=" stroke:none;fill-rule:nonzero;fill:rgb(50.196078%,50.196078%,50.196078%);fill-opacity:1;" d="M 190.425781 285.597656 L 174.449219 279.621094 L 176.988281 285.007812 L 173.988281 290.152344 Z M 190.425781 285.597656 "/>
<path style=" stroke:none;fill-rule:nonzero;fill:rgb(50.196078%,50.196078%,50.196078%);fill-opacity:1;" d="M 176.988281 285.007812 L 176.644531 284.992188 L 176.671875 284.335938 L 176.988281 285.003906 L 176.644531 284.988281 L 176.617188 285.644531 Z M 176.988281 285.007812 "/>
<path style="fill:none;stroke-width:1.309947;stroke-linecap:butt;stroke-linejoin:miter;stroke:rgb(50.196078%,50.196078%,50.196078%);stroke-opacity:1;stroke-miterlimit:10;" d="M 119.78125 280.863281 C 111.140625 279.445312 99.515625 277.542969 89.667969 275.925781 "/>
<path style=" stroke:none;fill-rule:nonzero;fill:rgb(50.196078%,50.196078%,50.196078%);fill-opacity:1;" d="M 76.050781 273.695312 L 91.207031 281.523438 L 89.324219 275.871094 L 92.910156 271.117188 Z M 76.050781 273.695312 "/>
<path style=" stroke:none;fill-rule:nonzero;fill:rgb(50.196078%,50.196078%,50.196078%);fill-opacity:1;" d="M 89.324219 275.871094 L 89.664062 275.925781 L 89.558594 276.570312 L 89.324219 275.867188 L 89.664062 275.921875 L 89.769531 275.277344 Z M 89.324219 275.871094 "/>
<path style="fill:none;stroke-width:1.309947;stroke-linecap:butt;stroke-linejoin:miter;stroke:rgb(50.196078%,50.196078%,50.196078%);stroke-opacity:1;stroke-miterlimit:10;" d="M 135.136719 269.40625 C 136.035156 262.328125 137.191406 253.296875 138.210938 245.308594 "/>
<path style=" stroke:none;fill-rule:nonzero;fill:rgb(50.196078%,50.196078%,50.196078%);fill-opacity:1;" d="M 139.953125 231.621094 L 132.675781 247.050781 L 138.253906 244.96875 L 143.132812 248.382812 Z M 139.953125 231.621094 "/>
<path style=" stroke:none;fill-rule:nonzero;fill:rgb(50.196078%,50.196078%,50.196078%);fill-opacity:1;" d="M 138.253906 244.96875 L 138.210938 245.308594 L 137.5625 245.226562 L 138.253906 244.96875 L 138.210938 245.308594 L 138.859375 245.390625 Z M 138.253906 244.96875 "/>
<path style="fill:none;stroke-width:1.309947;stroke-linecap:butt;stroke-linejoin:miter;stroke:rgb(50.196078%,50.196078%,50.196078%);stroke-opacity:1;stroke-miterlimit:10;" d="M 141.667969 204.136719 C 141.652344 195.824219 141.636719 185.011719 141.625 175.503906 "/>
<path style=" stroke:none;fill-rule:nonzero;fill:rgb(50.196078%,50.196078%,50.196078%);fill-opacity:1;" d="M 141.601562 161.707031 L 136.355469 177.941406 L 141.621094 175.160156 L 146.898438 177.921875 Z M 141.601562 161.707031 "/>
<path style=" stroke:none;fill-rule:nonzero;fill:rgb(50.196078%,50.196078%,50.196078%);fill-opacity:1;" d="M 141.625 175.160156 L 141.625 175.503906 L 140.96875 175.503906 L 141.625 175.160156 L 141.625 175.503906 L 142.28125 175.503906 Z M 141.625 175.160156 "/>
<path style="fill:none;stroke-width:1.309947;stroke-linecap:butt;stroke-linejoin:miter;stroke:rgb(50.196078%,50.196078%,50.196078%);stroke-opacity:1;stroke-miterlimit:10;" d="M 127.914062 217.230469 C 120.546875 216.851562 111.222656 216.390625 102.832031 215.960938 "/>
<path style=" stroke:none;fill-rule:nonzero;fill:rgb(50.196078%,50.196078%,50.196078%);fill-opacity:1;" d="M 89.050781 215.257812 L 104.984375 221.347656 L 102.484375 215.941406 L 105.519531 210.816406 Z M 89.050781 215.257812 "/>
<path style=" stroke:none;fill-rule:nonzero;fill:rgb(50.196078%,50.196078%,50.196078%);fill-opacity:1;" d="M 102.488281 215.941406 L 102.832031 215.957031 L 102.796875 216.609375 L 102.488281 215.9375 L 102.832031 215.953125 L 102.867188 215.300781 Z M 102.488281 215.941406 "/>
<path style="fill:none;stroke-width:1.309947;stroke-linecap:butt;stroke-linejoin:miter;stroke:rgb(50.196078%,50.196078%,50.196078%);stroke-opacity:1;stroke-miterlimit:10;" d="M 155.492188 218.125 C 163.207031 218.230469 173.167969 218.375 181.902344 218.496094 "/>
<path style=" stroke:none;fill-rule:nonzero;fill:rgb(50.196078%,50.196078%,50.196078%);fill-opacity:1;" d="M 195.695312 218.6875 L 179.546875 213.191406 L 182.246094 218.5 L 179.402344 223.734375 Z M 195.695312 218.6875 "/>
<path style=" stroke:none;fill-rule:nonzero;fill:rgb(50.196078%,50.196078%,50.196078%);fill-opacity:1;" d="M 182.246094 218.5 L 181.902344 218.496094 L 181.910156 217.839844 L 182.246094 218.5 L 181.902344 218.496094 L 181.894531 219.152344 Z M 182.246094 218.5 "/>
<path style="fill:none;stroke-width:1.309947;stroke-linecap:butt;stroke-linejoin:miter;stroke:rgb(50.196078%,50.196078%,50.196078%);stroke-opacity:1;stroke-miterlimit:10;" d="M 139.949219 231.621094 C 139.046875 238.699219 137.90625 247.730469 136.886719 255.71875 "/>
<path style=" stroke:none;fill-rule:nonzero;fill:rgb(50.196078%,50.196078%,50.196078%);fill-opacity:1;" d="M 135.140625 269.40625 L 142.421875 253.980469 L 136.84375 256.0625 L 131.964844 252.644531 Z M 135.140625 269.40625 "/>
<path style=" stroke:none;fill-rule:nonzero;fill:rgb(50.196078%,50.196078%,50.196078%);fill-opacity:1;" d="M 136.84375 256.0625 L 136.886719 255.722656 L 137.535156 255.804688 L 136.84375 256.0625 L 136.886719 255.722656 L 136.238281 255.640625 Z M 136.84375 256.0625 "/>
<path style="fill:none;stroke-width:1.309947;stroke-linecap:butt;stroke-linejoin:miter;stroke:rgb(50.196078%,50.196078%,50.196078%);stroke-opacity:1;stroke-miterlimit:10;" d="M 69.199219 35.988281 C 69.871094 40.851562 70.664062 46.582031 71.417969 52.027344 "/>
<path style=" stroke:none;fill-rule:nonzero;fill:rgb(50.196078%,50.196078%,50.196078%);fill-opacity:1;" d="M 73.308594 65.695312 L 76.308594 48.902344 L 71.464844 52.371094 L 65.863281 50.347656 Z M 73.308594 65.695312 "/>
<path style=" stroke:none;fill-rule:nonzero;fill:rgb(50.196078%,50.196078%,50.196078%);fill-opacity:1;" d="M 71.464844 52.367188 L 71.417969 52.027344 L 72.066406 51.9375 L 71.464844 52.367188 L 71.417969 52.027344 L 70.769531 52.117188 Z M 71.464844 52.367188 "/>
<path style="fill:none;stroke-width:1.309947;stroke-linecap:butt;stroke-linejoin:miter;stroke:rgb(50.196078%,50.196078%,50.196078%);stroke-opacity:1;stroke-miterlimit:10;" d="M 81.007812 20.691406 C 89.804688 19.644531 101.636719 18.234375 111.667969 17.046875 "/>
<path style=" stroke:none;fill-rule:nonzero;fill:rgb(50.196078%,50.196078%,50.196078%);fill-opacity:1;" d="M 125.371094 15.421875 L 108.640625 12.097656 L 112.011719 17.007812 L 109.878906 22.570312 Z M 125.371094 15.421875 "/>
<path style=" stroke:none;fill-rule:nonzero;fill:rgb(50.196078%,50.196078%,50.196078%);fill-opacity:1;" d="M 112.011719 17.003906 L 111.667969 17.042969 L 111.589844 16.390625 L 112.007812 17 L 111.664062 17.039062 L 111.742188 17.691406 Z M 112.011719 17.003906 "/>
<path style="fill:none;stroke-width:1.309947;stroke-linecap:butt;stroke-linejoin:miter;stroke:rgb(50.196078%,50.196078%,50.196078%);stroke-opacity:1;stroke-miterlimit:10;" d="M 125.371094 15.425781 C 116.574219 16.472656 104.742188 17.882812 94.710938 19.070312 "/>
<path style=" stroke:none;fill-rule:nonzero;fill:rgb(50.196078%,50.196078%,50.196078%);fill-opacity:1;" d="M 81.011719 20.699219 L 97.742188 24.023438 L 94.371094 19.113281 L 96.503906 13.550781 Z M 81.011719 20.699219 "/>
<path style=" stroke:none;fill-rule:nonzero;fill:rgb(50.196078%,50.196078%,50.196078%);fill-opacity:1;" d="M 94.371094 19.113281 L 94.714844 19.074219 L 94.792969 19.726562 L 94.375 19.117188 L 94.71875 19.078125 L 94.640625 18.425781 Z M 94.371094 19.113281 "/>
<path style="fill:none;stroke-width:1.309947;stroke-linecap:butt;stroke-linejoin:miter;stroke:rgb(50.196078%,50.196078%,50.196078%);stroke-opacity:1;stroke-miterlimit:10;" d="M 152.871094 13.886719 C 161.578125 13.945312 173.273438 14.015625 183.222656 14.078125 "/>
<path style=" stroke:none;fill-rule:nonzero;fill:rgb(50.196078%,50.196078%,50.196078%);fill-opacity:1;" d="M 197.019531 14.167969 L 180.828125 8.792969 L 183.566406 14.082031 L 180.761719 19.335938 Z M 197.019531 14.167969 "/>
<path style=" stroke:none;fill-rule:nonzero;fill:rgb(50.196078%,50.196078%,50.196078%);fill-opacity:1;" d="M 183.566406 14.082031 L 183.222656 14.078125 L 183.226562 13.421875 L 183.566406 14.078125 L 183.222656 14.074219 L 183.21875 14.730469 Z M 183.566406 14.082031 "/>
<path style="fill:none;stroke-width:1.309947;stroke-linecap:butt;stroke-linejoin:miter;stroke:rgb(50.196078%,50.196078%,50.196078%);stroke-opacity:1;stroke-miterlimit:10;" d="M 139.589844 27.585938 C 139.84375 34.316406 140.148438 42.796875 140.429688 50.382812 "/>
<path style=" stroke:none;fill-rule:nonzero;fill:rgb(50.196078%,50.196078%,50.196078%);fill-opacity:1;" d="M 140.9375 64.171875 L 145.609375 47.765625 L 140.441406 50.730469 L 135.070312 48.15625 Z M 140.9375 64.171875 "/>
<path style=" stroke:none;fill-rule:nonzero;fill:rgb(50.196078%,50.196078%,50.196078%);fill-opacity:1;" d="M 140.441406 50.726562 L 140.429688 50.382812 L 141.085938 50.359375 L 140.445312 50.726562 L 140.433594 50.382812 L 139.777344 50.40625 Z M 140.441406 50.726562 "/>
<path style="fill:none;stroke-width:1.309947;stroke-linecap:butt;stroke-linejoin:miter;stroke:rgb(50.196078%,50.196078%,50.196078%);stroke-opacity:1;stroke-miterlimit:10;" d="M 197.019531 14.167969 C 188.316406 14.109375 176.621094 14.039062 166.667969 13.976562 "/>
<path style=" stroke:none;fill-rule:nonzero;fill:rgb(50.196078%,50.196078%,50.196078%);fill-opacity:1;" d="M 152.871094 13.886719 L 169.0625 19.261719 L 166.324219 13.972656 L 169.128906 8.71875 Z M 152.871094 13.886719 "/>
<path style=" stroke:none;fill-rule:nonzero;fill:rgb(50.196078%,50.196078%,50.196078%);fill-opacity:1;" d="M 166.324219 13.972656 L 166.667969 13.976562 L 166.664062 14.632812 L 166.324219 13.976562 L 166.667969 13.980469 L 166.671875 13.324219 Z M 166.324219 13.972656 "/>
<path style="fill:none;stroke-width:1.309947;stroke-linecap:butt;stroke-linejoin:miter;stroke:rgb(50.196078%,50.196078%,50.196078%);stroke-opacity:1;stroke-miterlimit:10;" d="M 224.519531 15.847656 C 233.171875 16.851562 244.789062 18.199219 254.671875 19.347656 "/>
<path style=" stroke:none;fill-rule:nonzero;fill:rgb(50.196078%,50.196078%,50.196078%);fill-opacity:1;" d="M 268.375 20.941406 L 252.867188 13.832031 L 255.011719 19.386719 L 251.652344 24.304688 Z M 268.375 20.941406 "/>
<path style=" stroke:none;fill-rule:nonzero;fill:rgb(50.196078%,50.196078%,50.196078%);fill-opacity:1;" d="M 255.011719 19.386719 L 254.667969 19.347656 L 254.742188 18.695312 L 255.007812 19.386719 L 254.664062 19.347656 L 254.589844 20 Z M 255.011719 19.386719 "/>
<path style="fill:none;stroke-width:1.309947;stroke-linecap:butt;stroke-linejoin:miter;stroke:rgb(50.196078%,50.196078%,50.196078%);stroke-opacity:1;stroke-miterlimit:10;" d="M 210.308594 28.046875 C 210.058594 34.816406 209.753906 43.363281 209.472656 50.988281 "/>
<path style=" stroke:none;fill-rule:nonzero;fill:rgb(50.196078%,50.196078%,50.196078%);fill-opacity:1;" d="M 208.957031 64.777344 L 214.828125 48.761719 L 209.457031 51.335938 L 204.292969 48.371094 Z M 208.957031 64.777344 "/>
<path style=" stroke:none;fill-rule:nonzero;fill:rgb(50.196078%,50.196078%,50.196078%);fill-opacity:1;" d="M 209.457031 51.332031 L 209.46875 50.988281 L 210.125 51.011719 L 209.457031 51.332031 L 209.46875 50.988281 L 208.8125 50.964844 Z M 209.457031 51.332031 "/>
<path style="fill:none;stroke-width:1.309947;stroke-linecap:butt;stroke-linejoin:miter;stroke:rgb(50.196078%,50.196078%,50.196078%);stroke-opacity:1;stroke-miterlimit:10;" d="M 280.375 36.222656 C 279.742188 41.292969 278.992188 47.273438 278.285156 52.933594 "/>
<path style=" stroke:none;fill-rule:nonzero;fill:rgb(50.196078%,50.196078%,50.196078%);fill-opacity:1;" d="M 276.570312 66.625 L 283.816406 51.179688 L 278.242188 53.273438 L 273.355469 49.867188 Z M 276.570312 66.625 "/>
<path style=" stroke:none;fill-rule:nonzero;fill:rgb(50.196078%,50.196078%,50.196078%);fill-opacity:1;" d="M 278.242188 53.273438 L 278.285156 52.933594 L 278.933594 53.015625 L 278.242188 53.277344 L 278.285156 52.9375 L 277.636719 52.855469 Z M 278.242188 53.273438 "/>
<path style="fill:none;stroke-width:1.309947;stroke-linecap:butt;stroke-linejoin:miter;stroke:rgb(50.196078%,50.196078%,50.196078%);stroke-opacity:1;stroke-miterlimit:10;" d="M 268.375 20.941406 C 259.730469 19.9375 248.109375 18.585938 238.226562 17.4375 "/>
<path style=" stroke:none;fill-rule:nonzero;fill:rgb(50.196078%,50.196078%,50.196078%);fill-opacity:1;" d="M 224.519531 15.847656 L 240.027344 22.953125 L 237.882812 17.398438 L 241.242188 12.480469 Z M 224.519531 15.847656 "/>
<path style=" stroke:none;fill-rule:nonzero;fill:rgb(50.196078%,50.196078%,50.196078%);fill-opacity:1;" d="M 237.882812 17.394531 L 238.226562 17.433594 L 238.152344 18.085938 L 237.886719 17.394531 L 238.230469 17.433594 L 238.304688 16.78125 Z M 237.882812 17.394531 "/>
<path style="fill:none;stroke-width:1.309947;stroke-linecap:butt;stroke-linejoin:miter;stroke:rgb(50.196078%,50.196078%,50.196078%);stroke-opacity:1;stroke-miterlimit:10;" d="M 127.648438 78.257812 C 120.347656 78.417969 111.105469 78.613281 102.789062 78.785156 "/>
<path style=" stroke:none;fill-rule:nonzero;fill:rgb(50.196078%,50.196078%,50.196078%);fill-opacity:1;" d="M 88.996094 79.074219 L 105.328125 84.007812 L 102.449219 78.796875 L 105.109375 73.46875 Z M 88.996094 79.074219 "/>
<path style=" stroke:none;fill-rule:nonzero;fill:rgb(50.196078%,50.196078%,50.196078%);fill-opacity:1;" d="M 102.445312 78.792969 L 102.789062 78.785156 L 102.800781 79.441406 L 102.441406 78.792969 L 102.785156 78.785156 L 102.773438 78.128906 Z M 102.445312 78.792969 "/>
<path style="fill:none;stroke-width:1.309947;stroke-linecap:butt;stroke-linejoin:miter;stroke:rgb(50.196078%,50.196078%,50.196078%);stroke-opacity:1;stroke-miterlimit:10;" d="M 141.464844 91.757812 C 141.476562 100.046875 141.5 110.835938 141.519531 120.316406 "/>
<path style=" stroke:none;fill-rule:nonzero;fill:rgb(50.196078%,50.196078%,50.196078%);fill-opacity:1;" d="M 141.550781 134.113281 L 146.785156 117.878906 L 141.519531 120.660156 L 136.242188 117.898438 Z M 141.550781 134.113281 "/>
<path style=" stroke:none;fill-rule:nonzero;fill:rgb(50.196078%,50.196078%,50.196078%);fill-opacity:1;" d="M 141.523438 120.660156 L 141.523438 120.316406 L 142.179688 120.316406 L 141.527344 120.664062 L 141.527344 120.320312 L 140.871094 120.320312 Z M 141.523438 120.660156 "/>
<path style="fill:none;stroke-width:1.309947;stroke-linecap:butt;stroke-linejoin:miter;stroke:rgb(50.196078%,50.196078%,50.196078%);stroke-opacity:1;stroke-miterlimit:10;" d="M 140.9375 64.171875 C 140.691406 57.4375 140.375 48.964844 140.09375 41.375 "/>
<path style=" stroke:none;fill-rule:nonzero;fill:rgb(50.196078%,50.196078%,50.196078%);fill-opacity:1;" d="M 139.585938 27.585938 L 134.917969 43.996094 L 140.082031 41.03125 L 145.453125 43.605469 Z M 139.585938 27.585938 "/>
<path style=" stroke:none;fill-rule:nonzero;fill:rgb(50.196078%,50.196078%,50.196078%);fill-opacity:1;" d="M 140.082031 41.027344 L 140.09375 41.371094 L 139.4375 41.394531 L 140.078125 41.027344 L 140.089844 41.371094 L 140.746094 41.347656 Z M 140.082031 41.027344 "/>
<path style="fill:none;stroke-width:1.309947;stroke-linecap:butt;stroke-linejoin:miter;stroke:rgb(50.196078%,50.196078%,50.196078%);stroke-opacity:1;stroke-miterlimit:10;" d="M 155.242188 78.085938 C 162.722656 78.15625 172.371094 78.238281 180.851562 78.316406 "/>
<path style=" stroke:none;fill-rule:nonzero;fill:rgb(50.196078%,50.196078%,50.196078%);fill-opacity:1;" d="M 194.648438 78.441406 L 178.472656 73.023438 L 181.195312 78.320312 L 178.375 83.566406 Z M 194.648438 78.441406 "/>
<path style=" stroke:none;fill-rule:nonzero;fill:rgb(50.196078%,50.196078%,50.196078%);fill-opacity:1;" d="M 181.195312 78.320312 L 180.851562 78.316406 L 180.859375 77.660156 L 181.199219 78.316406 L 180.855469 78.3125 L 180.847656 78.96875 Z M 181.195312 78.320312 "/>
<path style="fill:none;stroke-width:1.309947;stroke-linecap:butt;stroke-linejoin:miter;stroke:rgb(50.196078%,50.196078%,50.196078%);stroke-opacity:1;stroke-miterlimit:10;" d="M 222.238281 78.921875 C 229.589844 79.113281 238.90625 79.363281 247.273438 79.585938 "/>
<path style=" stroke:none;fill-rule:nonzero;fill:rgb(50.196078%,50.196078%,50.196078%);fill-opacity:1;" d="M 261.0625 79.949219 L 244.984375 74.25 L 247.617188 79.59375 L 244.707031 84.789062 Z M 261.0625 79.949219 "/>
<path style=" stroke:none;fill-rule:nonzero;fill:rgb(50.196078%,50.196078%,50.196078%);fill-opacity:1;" d="M 247.613281 79.59375 L 247.269531 79.585938 L 247.285156 78.929688 L 247.613281 79.59375 L 247.269531 79.585938 L 247.253906 80.242188 Z M 247.613281 79.59375 "/>
<path style="fill:none;stroke-width:1.309947;stroke-linecap:butt;stroke-linejoin:miter;stroke:rgb(50.196078%,50.196078%,50.196078%);stroke-opacity:1;stroke-miterlimit:10;" d="M 208.652344 92.359375 C 208.777344 100.644531 208.9375 111.511719 209.078125 121.058594 "/>
<path style=" stroke:none;fill-rule:nonzero;fill:rgb(50.196078%,50.196078%,50.196078%);fill-opacity:1;" d="M 209.277344 134.855469 L 214.3125 118.554688 L 209.082031 121.402344 L 203.769531 118.707031 Z M 209.277344 134.855469 "/>
<path style=" stroke:none;fill-rule:nonzero;fill:rgb(50.196078%,50.196078%,50.196078%);fill-opacity:1;" d="M 209.082031 121.40625 L 209.078125 121.0625 L 209.734375 121.054688 L 209.085938 121.410156 L 209.082031 121.066406 L 208.425781 121.074219 Z M 209.082031 121.40625 "/>
<path style="fill:none;stroke-width:1.309947;stroke-linecap:butt;stroke-linejoin:miter;stroke:rgb(50.196078%,50.196078%,50.196078%);stroke-opacity:1;stroke-miterlimit:10;" d="M 208.957031 64.777344 C 209.210938 58 209.523438 49.460938 209.804688 41.835938 "/>
<path style=" stroke:none;fill-rule:nonzero;fill:rgb(50.196078%,50.196078%,50.196078%);fill-opacity:1;" d="M 210.308594 28.046875 L 204.445312 44.066406 L 209.816406 41.488281 L 214.984375 44.449219 Z M 210.308594 28.046875 "/>
<path style=" stroke:none;fill-rule:nonzero;fill:rgb(50.196078%,50.196078%,50.196078%);fill-opacity:1;" d="M 209.816406 41.488281 L 209.804688 41.832031 L 209.148438 41.808594 L 209.816406 41.488281 L 209.804688 41.832031 L 210.460938 41.855469 Z M 209.816406 41.488281 "/>
<path style="fill:none;stroke-width:1.309947;stroke-linecap:butt;stroke-linejoin:miter;stroke:rgb(50.196078%,50.196078%,50.196078%);stroke-opacity:1;stroke-miterlimit:10;" d="M 194.648438 78.445312 C 187.167969 78.382812 177.519531 78.289062 169.039062 78.210938 "/>
<path style=" stroke:none;fill-rule:nonzero;fill:rgb(50.196078%,50.196078%,50.196078%);fill-opacity:1;" d="M 155.242188 78.085938 L 171.417969 83.507812 L 168.695312 78.210938 L 171.515625 72.964844 Z M 155.242188 78.085938 "/>
<path style=" stroke:none;fill-rule:nonzero;fill:rgb(50.196078%,50.196078%,50.196078%);fill-opacity:1;" d="M 168.695312 78.210938 L 169.039062 78.214844 L 169.03125 78.871094 L 168.691406 78.214844 L 169.035156 78.21875 L 169.042969 77.5625 Z M 168.695312 78.210938 "/>
</g>
</svg>
